<svg width="18" height="18" viewBox="0 0 18 18" fill="none" xmlns="http://www.w3.org/2000/svg">
<rect width="18" height="18" rx="4" fill="#4ABBC7"/>
<path d="M13.6406 15.75C13.0009 15.75 12.3756 15.5603 11.8437 15.2049C11.3118 14.8495 10.8973 14.3443 10.6525 13.7533C10.4077 13.1623 10.3436 12.512 10.4684 11.8846C10.5932 11.2572 10.9012 10.6809 11.3536 10.2286C11.8059 9.77622 12.3822 9.46817 13.0096 9.34337C13.637 9.21857 14.2874 9.28263 14.8784 9.52743C15.4694 9.77223 15.9745 10.1868 16.3299 10.7187C16.6853 11.2506 16.875 11.8759 16.875 12.5156C16.8741 13.3731 16.533 14.1953 15.9266 14.8016C15.3203 15.408 14.4982 15.749 13.6406 15.75V15.75ZM13.6406 10.4062C13.2234 10.4062 12.8156 10.5299 12.4687 10.7617C12.1218 10.9935 11.8515 11.3229 11.6918 11.7084C11.5322 12.0938 11.4904 12.5179 11.5718 12.9271C11.6532 13.3363 11.8541 13.7122 12.1491 14.0072C12.4441 14.3022 12.8199 14.5031 13.2291 14.5844C13.6383 14.6658 14.0624 14.6241 14.4478 14.4644C14.8333 14.3048 15.1627 14.0344 15.3945 13.6875C15.6263 13.3406 15.75 12.9328 15.75 12.5156C15.7493 11.9564 15.5269 11.4202 15.1315 11.0248C14.736 10.6293 14.1999 10.4069 13.6406 10.4062V10.4062ZM4.35938 15.75C3.71968 15.75 3.09434 15.5603 2.56245 15.2049C2.03056 14.8495 1.61601 14.3443 1.3712 13.7533C1.1264 13.1623 1.06235 12.512 1.18715 11.8846C1.31195 11.2572 1.61999 10.6809 2.07233 10.2286C2.52466 9.77622 3.10097 9.46817 3.72838 9.34337C4.35579 9.21857 5.00611 9.28263 5.59712 9.52743C6.18812 9.77223 6.69326 10.1868 7.04866 10.7187C7.40406 11.2506 7.59375 11.8759 7.59375 12.5156C7.59282 13.3731 7.25176 14.1953 6.6454 14.8016C6.03904 15.408 5.2169 15.749 4.35938 15.75V15.75ZM4.35938 10.4062C3.94218 10.4062 3.53436 10.5299 3.18747 10.7617C2.84059 10.9935 2.57022 11.3229 2.41057 11.7084C2.25091 12.0938 2.20914 12.5179 2.29053 12.9271C2.37192 13.3363 2.57282 13.7122 2.86782 14.0072C3.16282 14.3022 3.53868 14.5031 3.94786 14.5844C4.35704 14.6658 4.78116 14.6241 5.1666 14.4644C5.55204 14.3048 5.88148 14.0344 6.11326 13.6875C6.34504 13.3406 6.46875 12.9328 6.46875 12.5156C6.4681 11.9564 6.24565 11.4202 5.85021 11.0248C5.45477 10.6293 4.91862 10.4069 4.35938 10.4062V10.4062ZM11.25 4.49997C11.3982 4.50049 11.545 4.47162 11.6819 4.41505C11.8189 4.35848 11.9433 4.27531 12.0479 4.17037C12.1525 4.06543 12.2353 3.94079 12.2914 3.80366C12.3476 3.66653 12.376 3.51963 12.375 3.37146C12.3766 3.22402 12.3489 3.07774 12.2933 2.94117C12.2378 2.80459 12.1555 2.68046 12.0514 2.57604C11.9473 2.47162 11.8235 2.389 11.6871 2.33301C11.5507 2.27703 11.4045 2.2488 11.257 2.24997C11.1093 2.24951 10.9629 2.27815 10.8262 2.33426C10.6896 2.39037 10.5653 2.47285 10.4605 2.57699C10.3557 2.68113 10.2725 2.80489 10.2155 2.94121C10.1585 3.07752 10.129 3.22372 10.1285 3.37146C10.1281 3.5192 10.1567 3.66558 10.2128 3.80225C10.2689 3.93891 10.3514 4.06319 10.4555 4.16798C10.5597 4.27278 10.6834 4.35603 10.8198 4.41299C10.9561 4.46996 11.1023 4.49951 11.25 4.49997V4.49997Z" fill="white"/>
<path d="M12.9217 6.75002H11.3832C11.358 6.75003 11.3332 6.74324 11.3115 6.73038C11.2898 6.71751 11.272 6.69904 11.2598 6.6769L10.144 4.63186C10.0654 4.47988 9.95206 4.34856 9.81325 4.24851C9.67444 4.14846 9.51402 4.0825 9.34498 4.05597C9.17594 4.02944 9.00303 4.04308 8.84024 4.0958C8.67746 4.14851 8.52937 4.23882 8.40797 4.3594L5.95195 6.8344C5.74562 7.045 5.6285 7.32709 5.625 7.6219C5.625 8.23362 6.06797 8.45159 6.27539 8.57463C7.27734 9.1519 7.98293 9.57413 8.37 9.80862C8.39058 9.82115 8.40759 9.83875 8.41941 9.85974C8.43123 9.88073 8.43746 9.90441 8.4375 9.9285V12.3585C8.4375 12.6612 8.67023 12.921 8.97293 12.9361C9.04893 12.9398 9.12488 12.928 9.19618 12.9014C9.26749 12.8749 9.33267 12.8342 9.38779 12.7817C9.4429 12.7293 9.4868 12.6662 9.51683 12.5963C9.54686 12.5264 9.5624 12.4511 9.5625 12.375V9.35159C9.56255 9.26229 9.54134 9.17427 9.50063 9.09479C9.45991 9.01532 9.40086 8.94668 9.32836 8.89456L8.02758 7.95905C8.01125 7.94737 7.99761 7.93232 7.98758 7.91493C7.97756 7.89754 7.97137 7.8782 7.96944 7.85821C7.9675 7.83823 7.96987 7.81806 7.97639 7.79907C7.9829 7.78008 7.9934 7.7627 8.00719 7.74811L9.48375 6.17346C9.49889 6.15726 9.51764 6.14487 9.53849 6.1373C9.55933 6.12973 9.58166 6.1272 9.60367 6.1299C9.62568 6.13261 9.64673 6.14049 9.66512 6.15288C9.6835 6.16528 9.69869 6.18185 9.70945 6.20124L10.4766 7.58569C10.5253 7.67345 10.5967 7.74656 10.6832 7.79744C10.7698 7.84832 10.8684 7.87511 10.9688 7.87502H12.9375C13.0137 7.87511 13.0891 7.85972 13.1592 7.82977C13.2293 7.79982 13.2925 7.75595 13.3451 7.70082C13.3977 7.64568 13.4386 7.58044 13.4652 7.50904C13.4918 7.43763 13.5037 7.36157 13.5 7.28545C13.4852 6.98276 13.2244 6.75002 12.9217 6.75002Z" fill="white"/>
</svg>
