<svg width="865" height="821" fill="none" xmlns="http://www.w3.org/2000/svg"><g clip-path="url(#clip0_68_1448)"><path d="M383.042 54.823v-.703l1.206-1.542-2.917-1.971.661-1.542.817-.41 2.975.097.195-.683-.214-1.854-.584-1.152.545-.8 1.886.098 2.1 1.366 2.762.137 1.945 1.405 1.186.176 9.257-.625 2.761.878 3.404-2.342 2.897.058 1.187 2.265-.72 1.561 1.147-1.17.156-.508-.428-2.518.409-.762 2.819-1.015 2.217.82 1.401-.117-.817-.097-1.498-1.113-.233-.996.156-6.187 1.186-1.874-3.19-2.382-1.069-1.522-.875-.547-1.595-.293-3.014.508-2.606 1.405-.409-.039-2.042-2.05-.408-1.405-2.217-1.19-1.984.175-.136-.234 2.315-2.772 2.333-1.073 2.237 2.206 1.594 3.786.817.078.642-1.17-.914-2.85-.972-1.757.738-.176 2.004.683 1.361-.722 3.442 2.889.214.937 3.345 4.294 1.147.254.973-.762 2.158-3.24.914.078 1.653 1.777 3.17 5.758.778.624 1.439.43 1.187-.8h1.05l1.069 1.561 2.995 1.269 1.439.039 1.031-.332 2.042-1.112.778-1.055 2.295.39.233.665-1.459.839-.33.508.097.527.661.624 1.517.644 1.167-.546.622-.82.486-.078 2.859 2.186-.253.41.292 1.737.409.332 3.442-.508 1.089.45 2.003.175 1.75-.215 1.556-1.19 2.081-.117 2.1 2.927 2.664 1.386 1.828 1.523 2.295.215.817.37-.117-.41.856-2.225 1.303-1.307 1.089-.469 1.225.547 3.131-.371 1.614-1.308-.486-.273-1.206.722-.214-.527.448-1.62 1.944-.527 1.44.039 2.683-2.147-.078-1.503.778.02.72.839-.642 1.034-3.598 3.065.895 1.054-2.431 2.498-.097.683.408 1.015.992.937 1.07-.468.311-.879 1.731-1.424 2.936-.86-1.789 2.265.72 1.093 1.555-.722.37.644-1.692 2.46.583 1.444.623.586.875-.567 1.594-.175.292.507 1.459-.136 1.128-.879 1.478-3.767-.564-.742-2.003.254-1.284-.547-.097-.527 2.197-2.186 3.579-2.4 2.353-.43-.486 1.62 1.322 3.728 1.497 2.186.953-.02.817-.585-.058-.468-1.381-.508.117-.41 1.711-.43 2.139 1.094 2.159 2.928-3.676 2.577-1.244 1.444-2.139 3.455-.487 2.616-2.664-.996-.214 1.445 1.303 2.42-.019 2.089-.35 2.05-1.478 2.224-.195-.683-1.711.586.078-3.846-.331-.331-.661.156-.836 2.264L495 67.901l-.856.059-.291-.84-1.031-.41-2.198.86-1.4 1.15-.758 1.309.058.605.856.663-.564 1.27-.934.78-.389 2.44.914 2.713.817.45 1.167-.294.914-1.034-.117 1.62-.661 2.264-1.342 2.07-.583 3.923-.584 1.132-2.45 1.66-2.781 3.61-1.711 2.967-.039 1.581-2.645 1.796-.856-.019 1.303 3.786.895 1.347 1.4 1.191 2.703.976 3.831 2.459 1.965 1.796 5.659 2.948.603.527.505 2.674 1.167 1.366 5.251 2.518 2.158 1.796 1.965 2.147 5.581.234 2.236 1.172 4.901 3.494 2.509 1.073 1.167-.039 2.178.722 1.925.957 2.567 4.099 2.995 2.557v213.837l-142.86.02-28.14-.02-18.883.137L343 155.681v-52.488l1.886.624 2.023 1.757-.233 3.982.35.429 1.38-1.717-.797-5.29.233-.488 2.178.605 2.723 1.386 4.356 4.88.175 1.054 1.167-.449-1.439-1.894-.778-1.62-.272-1.62.467-.917.233-1.464 3.248.566 1.342-.449 1.691-1.64-3.772 1.191-1.906-1.23-1.517-1.99-.35-1.016.778-.39 1.672-.176 1.381-.976.078-.468-2.373.8-2.528-.469-1.789-1.034-2.042-1.952.253-1.737 1.264-2.42 1.303-1.738 5.076-3.201 1.147-5.427-.117-.995.992-3.924 1.498-1.561.194 1.366.739.43 2.042-.371 2.586-1.757 2.12-2.245-.214-.8-1.322-1.815-.72-.605-.719-.157-.175-.468.194-3.826.35-.956.875-.39.292.546.622.293.798-.176 1.361-.976.545-1.19-.195-2.87.214-.722 3.267-1.464 1.945 2.225 1.867-.137-1.789-.527-.603-2.283.564-1.386.155-1.718-.641-.488 1.03-.43 2.995.957 2.684 4.548zm1.322-15.108l-2.061-1.718-3.87-1.6-3.889-3.065-1.576-4.158-1.128-4.197.156-1.58.447-.352 2.937 2.577.875 1.425 2.781.878 2.956-.703 1.147-1.073 2.217.956 2.47-1.913.642-.058.428 1.464 1.089 1.561.097-.546-.72-1.816.253-1.073 1.4-1.113 3.092 1.25 2.334 3.084.175 1.62-5.387 5.68-.68.097-2.606 1.68-3.579 2.693zm125.61 48.428l.331-.547.914-.058-.544 2.733-1.109.429-2.917-.78-2.509.37-5.367-1.347.739-3.728-.156-1.6.486-1.816.603-1.035 2.859-.546.681-.527-.603-1.366 1.769-1.484.914.059-.155.995-.817.566.778 2.264 2.003.352.7-.742-.214-.742.389-.527.7-.195.623.45.155.8-2.081 2.147-1.108.722-1.303 2.908.039 2.01.603.528 2.82.43.777-.723zm-135.45-50.595l-3.5-1.347-4.882 1.25-1.167-.235-.33-.527-.156-.566 1.167-2.127.972.585.798.04.778-.762-.059-2.987-.35-.917 1.731-3.025 1.867-.39 3.112 7.807 1.497.39 1.575 1.425-.486 1.074-2.567.312zm126.894-8.218l.077-.995 2.859-4.158 1.809-3.67.953-.507-1.031 3.982-3.442 4.84-.467.43-.758.078zm-82.496-2.4l-.622-.664-.739-2.05-.622-3.572 1.614-.624 1.011 3.337-.039 2.108-.603 1.465zm94.125 97.188l-1.206-.898-1.322-1.972.389-1.132 1.206-1.191.953 1.191.797 2.596-.545 1.386-.272.02zm-18.008-42.904l.058-.781-.68-1.191-.545.37.331 1.035h-.895l-.33-.41.194-1.815 1.847-1.464.895.156.934 1.27-.292 1.385-.7 1.132-.817.313zm-.389-46.848v-.995l1.925-1.542 1.595-.078 2.8-2.186-.194 1.073-2.12 1.62-4.006 2.108zm7.215 85.731l-.545-.274.428-1.835 1.206-.819.603.273-.37 2.401-1.322.254zM29.306 353.786l.372-.723.02-2.87-4.754-5.019-2.524-4.725-2.308-5.839-2.25-1.367-1.917-5.429-.176-1.035.235-2.108-1.31-2.168-2.68-3.124-.764-2.227-.117-4.588.86-2.227.47-2.851 1.82-5.858 1.467-2.929 3.012-2.363.528-1.972.294-2.636-.47-3.047 1.233-3.749-.235-2.226-1.154-3.183-1.741-2.46-.313-1.855 3.051-6.171 2.837-8.143 2.054-3.046 1.252-.703 1.565-.274.274.547-1.057 1.992-1.036 5.995 1.369 2.89-.665 4.218.92.937 4.635-1.953.587-2.441 1.291-3.3 3.502-6.073.548-1.874 6.2-3.437 2.329-.176 4.088-2.031 4.382-1.679 3.56-4.199 1.291-.995 2.68-1.153 2.524-3.788 4.988-2.324.548-1.445 1.35-.742 1.29-.156 3.522-1.25 2.777-1.718 2.152-1.816 1.722.371.92.918.938.253 4.05-2.167 2.093.722.684.782 1.487.663 1.584.293 1.35-.019 5.927-1.211 3.502-1.523 4.656-4.472 2.328-1.386.293.566.9.02 6.592-1.094 2.387.137 3.051-1.016 3.169-3.788.626-1.699 2.133-1.621 2.308-.214 5.203 1.288 3.13 1.211 4.323-2.226 9.644-1.406 2.074-.683 11.502-4.785 3.169-1.64 5.302-4.413 4.499-6.073 3.208-6.893 2.934-3.945-.254-1.797.763-1.679.508-.488 1.389.332 1.057-.566 1.565-1.25 1.134-1.66 1.311-.644 4.44-3.496.646-1.562-.117-1.211-.626-.585-1.683-.469-.958-1.426-.235-4.179-1.252-3.241.059-4.316.665-2.636 1.741-2.988 2.602-2.46 1.447-.918 2.7-.019-1.076-2.402.9-1.211.587-.234.469.449h.509l2.386-.82.215-.625-.547-.801.508-2.128.607-.684 1.115-.234 1.115-1.23.117-1.211.45-.722 1.506-.547 1.448 1.445-.45.566-1.056-.117-.705 2.441 1.35 1.835 1.624 1.016.43 1.679 4.069 7.596 5.223 8.339.469 1.816.392-1.934-.724-1.406.078-1.737 1.174-3.554-.959-2.93.392-1.679 1.349-.039 2.7 3.261 1.565 1.406.763.332.528-.293-.822-.39-.978-1.211-.763-3.046 2.015-2.305-.704-.371-1.624.488-.332-.234-1.037-2.206-2.328-2.519.117-2.402-2.386.039-1.624-1.465 1.448-.058 3.13.703 1.447-2.188.176-1.132-.215-.859-2.367-.469-.763-.683-.058-1.934.293-.625 3.306-.722 1.702 1.328-.47 1.035-1.095.293 2.269 2.382 1.115.234.039-.859 1.526-2.07 2.582.371 1.135.508.567.371.763 1.816.587.41 2.191.117 1.095-1.249 1.937.937 2.191.215 3.188-.449 2.27.995 1.212-.507-1.643-.156-2.504-1.172-1.741-.41-1.115-.078-1.741.507h-1.31l-.372-.39-.528-2.363 1.154-2.617.861-.195 1.017 1.543 1.584-1.094-.156-2.011.626-2.285 2.386-2.402-1.193-.488-1.154.332-1.721 2.929-.998.02-1.858-1.602-.607-4.296 1.819-4.159.665-.293 1.976 1.133 1.585-.82.371-.547-.234-4.199.9-.214 4.401 2.245 1.721 1.66 3.991 1.933-2.23-1.972-.117-.488 1.017-1.855-.45-.469-1.819-.019-2.113.781-.235-1.25.783-1.094.821-.39.607.39.841-1.445-.665-.175-2.778 1.835-.587-.019-.626-1.66.685-.879.919-.429 1.252.371.45-.137 1.115-.781-.313-.742 1.272-.899 1.467 3.301.371.234.216-.937-.274-1.875 2.504 1.465.058.781.842.41 1.975-.098.431-.41-.372-.312-.646.058-.567-.508.626-.605-2.308-1.64-2.093-1.035.704-.82.567-.196-2.269-3.358 2.289-3.261 1.976-1.64 1.115.468 4.264.098.215-2.656-.411-2.558.274-1.465.548-.41 2.347 1.113-1.838 7.772.391-.41 1.311-4.51 2.562 1.308-.391 2.343.411.761 1.252.781 1.878-2.089.997-.703.607-3.73 1.623-3.3.079-1.367-1.389-3.554-1.35-.859 1.056-.234 1.702.254 1.467.742-.176 1.64-1.095.469.723 2.382.9.254 1.135 1.152.548-.86-.392-1.151.842-1.953 2.073-1.64 1.506-.215-.997 2.44 2.406 3.106.685.195 2.19-2.304 1.82-3.3-.92-3.828 2.387-.957 2.073-.488 1.311 1.055 1.213 1.562-.372.82 1.506 1.855.529-.84.019-.703 1.859-.078 3.892 1.25 2.035 2.87 2.915 1.953 6.357 8.827.92-.45 3.599 3.086.391 2.128-1.017 1.465-1.506 5.077.215 2.304-.137 4.16-1.115 2.226 1.017-.586.587-.82.743-4.804 1.057.43 1.604 1.581.626 2.07.098-2.109-1.428-2.48-.685-2.734 2.426-3.319.43.078.567 2.792 2.015.059.215-.996-.841-1.523-.665-2.871 3.149-.898 9.86 2.46v52.51L343 353.786l-.254 137.122-4.402 1.913-5.066 2.949-7.884 3.573-3.619 1.445-5.829 1.133-8.549 3.3-4.46.781-9.292.43-6.103-.586-4.675-1.347-2.348 1.152-2.054-.449-3.521 1.913-6.181 5.077-1.507.664-3.012.645-6.514 3.593-2.465 2.207-2.817 1.698-7.296 1.192-2.563 1.015-1.956 1.601-1.78 2.265-2.211 6.405-.997 4.199-2.035 1.425-1.917 2.012-.724 1.445-.019.683-.939 1.035-3.189 2.168-3.658-.274-.548.215-1.271 1.718-.978.743-1.448.468-1.428-3.359-1.76-.742-3.678 1.25-2.445-.351-2.895.117-.392.39-3.032.313-1.682-.332-1.193.469-.763.878-.235 1.289-2.817.293-.822-.273.45-.957-.626-2.207-1.232-1.582-.43-.156-1.644.293-1.173 1.113-1.722.488-5.477-1.972-1.311-.098-2.66-.058-6.045 1.054h-4.01l-1.506.801-5.341.742-2.621 1.445-3.482-.879-5.262-.273-4.069 1.25-1.565 1.718-2.602 1.387-1.115 1.269-1.76 3.085-.294 1.562-3.012 2.949-2.484 1.465-2.759-.977-3.56-.332-3.658 2.48-.43.645.743.82-.743.839-1.722 1.055-3.423 1.113-1.252 1.289-.646 1.699-2.249 1.679-4.245 2.265-5.184.938-.078.527.508.547 2.935.644-1.311.742-1.604-.293-1.585-1.25-1.212-.449-1.331.078-.665.469-.489 1.777-1.623-1.289-4.265-1.796-8.118-.039-1.115 1.034-.49.02-3.149-1.015-2.601.41-3.013-.86-5.164-3.436-5.165-1.192-1.271-2.987-2.113-2.441-3.52-3.593-3.229-2.148-3.853-2.012-1.546-.175-1.545.371-.978 1.269-2.406-2.558.02-2.207-1.116-7.889-.078-4.413.92-4.257.9.254 1.31 1.953 2.523 1.074 2.015-.176 1.722-.625.704-.41 6.005-8.631-.919-7.108-1.584-7.811.489-1.699 1.623-2.011-.078.8-1.213 1.348-.039 1.015.86 2.441.588.879.39-.274-.038-1.367.978-3.593-.626-6.287.489-3.222-.372-2.402.117-5.019-.801-4.394-.51-1.386-5.183-9.432-1.467-4.374-1.233-2.851-3.032-5.272-2.562-6.542.156-.664-.665-4.96-1.408-4.843-.43-.371.097-9.471.763-4.432-1.056-3.691-.548-.879-.333-2.265-1.115-2.636-4.577-5.429-.587-1.777-.156-3.944-1.722-3.476-4.147-6.19-1.604-.977-1.643-2.343-1.272-5.722.274-1.776.704-1.66-.41-2.48-1.037-3.613-2.895-5.995-2.935-5.487-4.538-6.542-6.475-6.873-1.193-3.769.978-1.953-.137-2.167.078-.567.41-.293.353 4.57.646 1.328.665-3.75 3.15 3.886.43 1.27.254 4.003.489 1.445 1.565 1.992.665.136.059-.605 1.369-.937.9.214 1.526-2.265.117-4.022-1.526-2.031-2.915-1.914-2.151-2.226-1.233-5.077-2.152-3.476.372-1.933 1.291-2.051.607.449 1.975 3.554 2.25 1.934.782 2.206-.508 2.773-.587.645.059 1.991.626 1.816 1.075.098.724-.781 1.702-3.281 1.115 5.507.587 1.504 2.348 3.144 2.66-2.09.567-1.894-.645-.918-.411-1.66.724-4.55.743.352zm-21.968 3.378l-.626-.508-3.15-4.764-1.584-3.183L1 345.038l.137-2.051.841-1.21 1.056.253-.43 1.035.078.645 2.504 7.147 2.152 3.905.43 1.543-.43.859zm240.317-241.671l-.176-.606-1.134-1.054.176-.977.528-.839 1.389-.567 1.839 3.066-2.622.977zM53.269 236.094l-.724-.605-.528.507-.156-.175.02-1.191 2.17-2.93.705-.429.254.137.294 1.542-.098.684-1.233 1.913-.704.547zm207.473-137.98l-1.115-.606.137-1.66.489-1.25.998-1.035.978 1.094-.489 2.382-.763.371-.235.703zM767.633 599l-2.374-1.27-2.713-4.266-.546-1.567.038-3.651.979-5.079 5.37-4.167 2.393 1.429 1.074 1.329 1.884.734 1.262.853-.923.873-1.903-.277-1.526.773-.98 1.429-1.168 4.94.452 5.457-.151.773-1.168 1.687z" fill="#4ABBC7" stroke="#D1DDE8" stroke-width=".5"/><path d="M787.649 641L750 621.946l-1.916-.157 1.721-2.986.215-1.906-1.956-4.007-1.349-1.729-1.096-8.682-2.307-1.473-3.56-1.533-1.819.708-2.992-.57-1.975.334-1.976 2.475-1.916.177-3.56 1.257-2.855-.196-4.733-1.493-1.897-1.493-2.191-.334-1.33.177-.743.785-2.23.963-4.4-.393-6.063-1.159-1.486-.629-2.504-2.416-1.545-1.218-.528-.059-1.604.354-1.858 1.021-1.858-.176-.723-.59h-2.602l-2.659.688-.392.471-.743 2.711.333 2.672-3.755 1.06-.822-.216-2.62-1.532-4.46-5.245-1.095-2.514-.489-.511-1.212-.393-2.152-1.925-1.643-2.278-3.637-1.945-3.267-2.495-1.505-.55-.881.197-1.31-.983-.352-.55.489-1.493-.821-1.276-1.722-.433-1.584-.982-.978-2.161-.567-3.241.509-2.573.019-1.631-.274-.412-4.517-2.475-3.169-.216-2.503-1.022-.293-.707-1.33-.884-1.213.413-.372.53-.684 3.045-.958 1.218-1.8-.354-.723-.844.058-.511-1.134-3.045-1.839-1.709-.097-3.693-2.954-4.989-1.701-1.179-2.445-1.12-3.325.688-3.148-.825-1.878.727-1.193 1.65-1.037.55-.371-.511-2.367-1.454-3.481-1.63-3.657-.275-.646-.177-.997-.982.098-125.13 2.523-.019 42.636.019h123.644l1.623-.805 2.484-3.124 6.786-5.794 2.347-.649.548.099.332.707 1.859.55 6.532-.57 3.051-1.178 2.875-.354.586.137 1.624 1.69 1.467 1.002 3.54.098 3.207-.668 5.359 2.455 5.417 4.695.255 3.693.86 1.925.47.216 1.036-.255 1.017-1.08 1.917-3.929 3.657-1.631.782 1.513 1.311.629 4.068-1.965.684-3.948-1.916-4.361 2.053-1.63 2.386-1.179 4.225-1.395.86-.589.431-1.1 1.212-1.022.939.138 1.389 1.434 3.481.766 3.97-.412 3.501.235 1.623-2.161 2.836-.53 2.327-.904 1.585-1.296 1.525 1.395.293 1.591-.684 5.245.391 2.75.978 1.336-.391 4.871-3.345 4.4-2.346 6.915.586 1.709-2.366 13.534-1.037 3.968-3.95 11.158-.274 6.58.332 1.199.743.098.372 1.512-2.171 7.308-.411 2.888-2.229 7.405-1.878 3.85-4.302 5.461-.978 2.554.625 3.32-.254 3.516-3.696 3.143-1.584 1.846-3.267 2.043-.176 1.081.529 1.139-4.068 1.434-2.993 1.552-3.031 4.577-2.015 5.009-.469.393-1.076.078-.997.806-.215 1.159.899.805-.684 2.731-2.425 3.26-.92 6.876-.508 1.846-.763.589-1.232-.137-1.662.668 1.173.314.861.806-1.721 2.809-1.917 1.433-1.897 2.81-1.995 5.834.86 1.06-1.056 4.833-1.369.864-.43 1.493.743 2.18 1.487 1.552-.333 1.729-.567.491-.704-.766.254-.53-.293-1.199-.567-.059-1.35.845-.156.864.547 1.336-1.193 1.336-2.269 1.257-1.153 2.181-.118 1.1-1.564 4.557-1.076 1.748-4.107 9.036-.528 4.499-.039 5.696-1.233 1.611-1.134 6.325-1.212 4.42-1.35 3.418.098 3.87 2.112 2.455.274 1.847-.02.884-.625-.197-.9.668.039 3.104.704 3.025zm-18.639-43.845l.157-.785-.469-5.402 1.212-4.872 1.017-1.434 1.604-.766 1.975.275.939-.845-1.31-.844-1.956-.707-1.115-1.336-2.484-1.415-5.574 4.126-1.017 5.028-.039 3.634.567 1.552 2.836 4.224.509.432 2.131.727 1.017-1.592zm-271.407-42.624l-2.106 3.404-1.715.762-1.813 3.11-2.183 1.369-1.306 2.601-1.501 4.558.526.254.936-.118 2.826-1.994.293 1.349-.332 5.066-1.013.43-.566-1.076-1.773-1.975-1.268-.782-1.325.195-.936 2.21-.76-.019-.799-1.545-2.788-3.658-3.138-3.247-1.657-1.33-.683-.215-2.183.763.838-2.327 1.209-1.741.097 1.604 2.769 2.973 1.111.762 2.105-.684-2.144-.861-.273-.802-.117-.665.351-.782-.936-5.281-1.618-4.322-.253-2.895-1.423-2.21-3.392-3.833-4.074-3.325.584-2.445-.214-1.76-1.053-3.012-2.144-4.44-2.417-.939-3.918.626-1.677.959-1.286-1.448.019-.645-1.559-4.166-2.573-5.868 1.696.118.838.782.292 1.271 1.443-1.975.428-1.291-.428-2.23-1.501-2.131-1.326-1.154-.604-.098-3.353 1.056-1.365 1.31-.799-.156.039-2.034.604-1.389 1.073.431.35-.587-2.631-3.677-2.125-1.252-1.326-1.193.234-.919-1.442-.45-.526.43-.312 1.272-1.735 1.095-6.745-.47-.643-.156-1.482-1.604-1.949-.704-2.983-2.836-1.013-.548-4.25-.508-2.027.411-1.579 1.467-1.833.645-1.325.098-1.462-.372-3.567-3.618-5.459-3.97-8.557-4.44-4.581-1.721-.702.078-2.164 1.76-3.567 1.389-1.072.137-11.228-.841-2.418.078-4.503.352-2.066.528-12.827 1.095-4.873.802.117-137.26 18.928-.137 28.207.02 143.199-.02h63.491l.058 71.486-.097 124.586-.546-.724-.078 106.398-2.476-.255-1.676.509-1.54-.059-3.568-1.916-3.684-3.716-2.495-5.066-2.476-3.775-1.52-1.076-1.189.059-3.802-5.124-1.325-2.66.663-1.369-.059-1.076-.994-2.484.39-2.445 1.501-1.251.819-2.113-.02-3.54-.78-2.796-3.703-9.056-5.848-7.823-3.86-4.166-2.261-1.839 1.033.333 5.77 5.065 3.821 5.262 1.618 3.344-.234-1.819-.975-2.758-.799-1.193-2.515-2.914-7.369-7.08-.038-2.308 1.306-.528 1.598 1.389-.195 3.266.331.45 1.989-.215.546-2.269.253-3.462-.351-2.484-3.041-1.506-1.637 1.624-1.17.352-1.247-.059-1.073.469-.428 1.056.214.685 1.209.391.409.509-.955 1.232-5.712-.489-1.501.626-1.267 1.545-1.15.802-7.641.41-1.735-1.31 1.267-2.249 2.807-1.408 3.236-3.501.604-3.423-.253-.9.214-1.643 1.033-2.268-.702-4.186.488-2.308-.176-1.134-1.286-2.23-3.392-4.166-1.17-4.224-2.69-4.596-.507.117-1.286 3.012.565 1.134-.312 1.076-2.008 2.073-.74 2.562-.293 4.773-2.67 8.723-.02 2.151-1.559 1.271-3.002-1.369-1.54-.391-.819.156-3.977 1.506-.897 1.467-.506.333-2.944-.45-1.637 1.447-1.209.45-.682-.332-.604-1.017.779-1.272 1.443-1.427.507-1.233.351-3.637.994-1.467 1.774.704 1.812-.489 1.872-.118.37.587 1.813.822 1.053-.568.429-1.075.935-6.142-.37-4.791.253-4.753-.877-3.227.312-.43h1.033l.624-1.213 1.072-3.56.176-1.838 3.703-4.753 2.379-2.347.896-.254.351-.919-.682-2.993-2.144-4.127.643-1.916 1.208-.861 1.131-.45 1.365-.039.584-.469-.156-1.291-.643-1.232-1.15-.489-1.228-5.594-1.111-2.484-.585-3.031-1.131-.861-.175 4.088.487.274.488.86.136 2.68-.702 3.638-1.111.058-2.69.861-2.261 2.464-2.183 4.362-.117 2.092-.39 1.174-3.197 6.004-1.443 1.213-2.573.098-1.501-.92-1.384 2.074.39.273-.819.861-6.004 3.188-3.528 2.777-1.209 1.252-.117.822-1.052 1.994zM531.58 594l3.216.88 1.033 1.408.02 1.37-1.54 1.388-2.515-1.232-3.392-.254-2.982 1.408-.39.548.273 1.799-.604.606-2.768 1.369-2.067-2.112-2.787-.528-.78.254-.234.959-.604.352-2.515-.235-2.787.43-3.977.118-.682-1.135-3.002-2.503-.098-.92.994-2.933 7.759-2.308 1.657-.02 1.988-.469 4.172-1.858 4.425.371 1.247 1.194-.019 2.112.292.391 2.027.274 2.086 1.193 1.248.098L531.58 594z" fill="#4ABBC7" stroke="#D1DDE8" stroke-width=".5"/><path d="M779.578 647.093l-2.592 1.266-3.141.311-10.306.059-3.573.506-3.514-.136-3.947.272-7.361 2.161-4.359 2.142-4.652 3.504-3.593 3.33-3.396 3.348-5.183 5.977-2.042 1.792-4.771.603-4.672 1.168-1.669-.525-1.943.116-.884.37-.746 1.11 2.376 4.303 2.454-1.713.451-1.636.766.351.314 7.32-1.256 1.577-.668.331-1.001-.467-.589-.876-1.551-4.03-2.238-2.785-1.649-.7-1.041.33-.294.838-2.101-.176-1.727-3.465.51-.818-.667-1.246-1.885-.292-1.472.974-1.08.175-.884-.506-3.2-3.213.354-2.511 1.884-.779.746-1.305-1.492-3.387-.883-.565-4.024.292-.904 2.998-3.887 3.972-1.884.37-.864-.136-2.984-3.446h2.532l2.238-.993 3.122-5.452-.687-2.511-2.631-4.03-1.237-.623-1.983.895-2.846 2.707-3.495 2.589-3.003.311-.373.37.117.974 2.945.506 1.649-.565.982-.72 1.472.409.314.779-.235 1.187-1.1 1.675-.53.389-1.825-.428-3.279.701-.687.409-6.42 4.302-4.672 5.705-2.356.642-.785.545-.471 1.188-2.768 2.025-.805-.214-1.316-1.538-1.197-.701-4.417-1.402-1.002-1.013-1.806-1.109-1.629-.214-3.593-1.441-5.713-4.381-3.318-1.304-2.355.564-.393.448-1.924-.039-2.081-1.187-2.081-1.714-3.062-.662-1.493-.019-1.531.428-1.256 1.052v.837l.648 1.265-1.689.467-2.493-1.207-1.845-2.219-3.711-3.446-1.904-1.246-2.886-1.324.079-105.913.549.72 1.001.974.648.175 3.671.273 3.495 1.616 2.375 1.44.373.506 1.041-.545 1.197-1.635 1.885-.72 3.161.817 3.337-.681 2.454 1.11 1.708 1.168 2.965 4.945.098 3.66 1.845 1.694 1.139 3.018-.059.506.726.837 1.807.351.961-1.207.688-3.018.373-.526 1.217-.409 1.335.876.294.701 2.513 1.013 3.18.214 4.535 2.453.275.409-.019 1.616-.511 2.55.569 3.213.982 2.141 1.59.974 1.728.428.824 1.266-.49 1.479.353.545 1.315.974.884-.195 1.511.545 3.279 2.473 3.652 1.927 1.649 2.259 2.159 1.908 1.217.389.491.506 1.099 2.492 4.477 5.199 2.63 1.518.825.215 3.769-1.052-.334-2.648.746-2.686.393-.468 2.67-.681h2.611l.726.584 1.865.175 1.865-1.012 1.61-.351.53.059 1.551 1.207 2.513 2.395 1.492.623 6.086 1.148 4.417.39 2.238-.954.746-.779 1.335-.175 2.199.331 1.904 1.479 4.751 1.48 2.866.195 3.573-1.246 1.924-.176 1.983-2.453 1.983-.331 3.004.565 1.825-.701 3.573 1.519 2.317 1.46 1.099 8.605 1.355 1.714 1.963 3.971-.216 1.889-1.727 2.959 1.924.156L788 641.233l-1.669 1.051-2.434.215-2.395 3.621-1.924.973zm-89.993 18.594l-1.531-.585-.275-1.226.53-1.733 3.416.701.864 1.012-.236.39-1.374.019-1.394 1.422zm-.039 3.738l-.726-.877-1.041-.447-3.298.272.059-.292 1.492-1.441 1.983-.389.569.37 1.139 2.706-.177.098zm98.546-394.373v.352l1.315 1.252-1.099-3.774-1.393-2.855.02-1.076.824-2.17.843-1.095.942-.254.746.313 1.628 2.502.961 2.719 2.59 1.055 3.375 2.308 2.413 1.095-1.236-2.914-.02-1.72.589-1.193 1.55.273 1.511 2.249-.628 1.447.157 1.115 2.884 4.087-1.354 9.131 1.197 2.464-.255 3.285 1.412 2.855 1.727.939 1.589.235.608 1.388 1.452 1.095 1.02 2.933 1.511.821h.706l1.001.704 2.256 2.777 1.452.43 1.138.9-.334.528.138.645.588.235 1.04-1.017.039-1.252.51-.489.942.274 2.217 2.542 3.1 2.757 1.628 4.83 2.59 4.224 3.1 2.366 3.002 1.173 1.059 1.213.628 1.505.216 2.797 3.492 5.768 2.924.88 2.099.137.824 3.441-.255 2.073-.863.88.117 2.738.471 1.31.706.665.648.176 1.138 2.776 3.06 1.389.079.567-1.02 2.209-1.393 5.671.392 1.525.53 6.981.588 1.428.295 8.349-1.315.411-1.295 1.819.648 3.246 2.334 1.799 1.727 2.151 1.334 4.556 1.805 2.522.628 1.701-.471 3.188 1.059 2.659.981 1.369-1.589 1.29-2.334.9-2.845.528-1.629 2.151-3.512-.235-3.982.411-3.493-.763-1.393-1.427-.941-.137-1.217 1.017-.431 1.095-.864.586-4.237 1.389-2.394 1.173-2.06 1.623 1.923 4.341-.687 3.93-4.081 1.956-1.314-.626-.785-1.506-3.669 1.623-1.923 3.911-1.02 1.076-1.04.254-.471-.215-.863-1.916-.255-3.677-5.434-4.673-5.376-2.444-3.218.664-3.551-.097-1.471-.998-1.629-1.681-.588-.137-2.884.352-3.061 1.173-6.553.567-1.864-.547-.333-.704-.55-.098-2.354.645-6.808 5.769-2.492 3.109-1.628.802H642.261l-42.771-.02-2.55.059-.039-71.451H533V140.265l4.14 3.363 2.04.783 4.179.997 3.257-.196 1.02.743 3.316 1.389 3.571.508 2.785 3.852.452 2.855 1.079 2.073 1.02.997 1.628.567 2.139.255 2.099 1.388 1.727 1.74 4.218 1.213 1.452.86 2.06 1.838.843.352 2.414.137 5.63-1.017 2.924-1.075 1.824-.978 2.943-2.268 1.609-.567 1.118-2.034 1.197-4.615.314-3.305 5.062-6.55 1.962-4.419.628-3.207 2.374-6.219-.55-3.695 1.276-8.096 3.708-8.467.667-2.679-2.1-5.749-.961-6.16.314-1.798 1.216-3.11.157-2.424-.471-1.701-2.138-2.542-.177-2.62 1.55-6.414 3.12-6.043-.236-.958-.981-1.095-.961-3.754.177-.626.274-.489 2.178-1.369.824-.997 1.04-2.874 1.275.39.687 1.174.019 1.74.903 1.37.177-.92-1.197-3.48-.942-.685-2.59-3.872.628-.508-.412-.313-1.393-.098-.176 1.271.667.9-1.236.39-.746-.332.039-.488 2.001-4.322 1.864-2.561-.333-.744.961-2.737.922-1.369.922-.41.53 2.58 2.276-.45.177-.527-1.727-1.682-.079-.88.471-2.503 3.277-9.386.765-4.79-.432-3.774.197-.528.784-.568 3.375-.586 1.197-1.584.961-2.405 1.589-.059 2.001.939-.667 1.017-1.412 1.29-.157 1.975 1.353-1.72.766.058 2.884 2.444.922 2.014 1.648 6.688-.549 2.581.588 4.4-.157 2.522 2.315 2.034 1.472.117 1.393-.625.608.234 1.432 1.565-2.06 3.304-.432 1.819-.098 2.366 1.099.313.667-.176 1.884.919.588.645.079 2.268.941.978.805.078 1.452 1.095-1.178 2.718-.274 2.288.922.47 2.099-.235.216.43-.334 4.752.491 4.458.157.782.844.802.549 1.173-.177 2.034-1.196 5.006 1.51 3.91 1.805 1.897.275 3.52.824 2.914.961 2.053.726.782 1.53.821 2.649.02 3.022-2.347 6.003-2.737.883-1.975.844.195 1.334 1.995-.255 2.073 1.02 2.757L675.3 96.6l3.218 1.231 1.451.098 1.335 2.953 5.258 2.366 2.334 1.819-.137 1.29-1.609 2.835.079 1.291.843 1.388.275 1.623-.863 2.523 1.196 2.366 1.158 3.93v3.97l1.079 1.075 1.118 2.601-.353 4.498-.804 1.114-.138 2.268.197.646 1.118.704 7.279 9.053.706-.586 1.982-.333.51.626-1.648 3.109.098.684 1.511 2.582 1.667 3.891 1.138 4.165.393 3.07-.393 2.112.314 2.268-.137 1.467-1.962 4.145.157 2.132 4.316 5.631 2.59.978-.157 2.483-.962 2.229-.274 2.367.196.743 1.236 1.642 1.864 1.447.53 1.017 2.491 1.623 1.903.899 2.335.059 2.609 2.601 1.452.059 2.531.821 1.432 1.349 2.433.508 3.806-.293.314-.665-.961-1.662 1.216 1.389 2.06 3.695.844 4.302.51 1.037 1.079 1.153 1.158.274.981-.235-.334-1.818.157-.782 1.295.019.628.665.255 2.483 1.02.959 1.275.547 2.669-.117 2.629.762 1.687 2.034-.687.274.177.606 1.256 1.545 1.687 1.369 1.118-.489.079-1.33-.667-.606.294-.782 1.471.547 3.218 2.875 2.04.371.726.997 1.354 3.794.804.215.648 1.799-1.197-.293-1.02-1.037-.863-.41-1.04.43-1.57 1.936 1.315 3.52 2.57 2.678 1.53 1.056 2.276.802 2.825 2.19 1.158 1.467-.216 1.681.745 2.816 1.06.9.824 2.698 1.216 2.132 1.217 1.153-.275 4.322 1.942 6.922 1.472 3.559 1.354 1.936.922.743.059 2.327-.648.977 1.432-.723 1.138-.939.53-.88 3.335 4.126zm66.118 74.658l-.922-.195-.863-1.154-1.158-4.204 1.138-2.777 1.432-2.366-.02-2.014-.294-.508.883-1.838 2.217-1.78.981-1.916.177-1.037-.216-.801-1.275-2.073-.412-.235.804-1.486 1.825-1.193.176 4.772.491 1.075 1.02.665.216.821-5.199 12.202-.942 3.07.314 1.897-.373 1.075zM557.446 144.802l-.216-1.291.569-2.249 1.216-1.681 1.786-1.349 3.688-.45 1.158-.626 4.1.665.118 1.29-.922.431-1.393.293-.922-.743-1.962.782.314.684-1.315 2.171-2.374.899-3.08.568-.765.606zm257.27 158.174l-1.158-1.076-.824-1.818-1.432-1.291-.824-1.838-.196-1.603.942-.215 2.982 1.877.412.684 1.373 2.62.255 1.799-.569.685-.961.176zm-105.16-119.809l-1.472-.567-.412-2.034-.942-1.271-.981-.469-.529-.978.883-.215 3.021 1.408 1.766 2.542-.628 1.213-.706.371zm151.58 212.3l-.373-.821.117-2.034.825-4.654.824-.195 1.471.254-1.413 4.654-.451 2.679-1 .117zm.392-8.76l-1.413-3.95v-3.207l1.825-.997.471.352-1.099 4.145.216 3.657zM622.092 14.629l-1.334-1.075-.098-1.35 1.275-.84.883-.176 1.04 1.564-.138.802-1.02.254-.608.821zm2.06-10.833l-1.471-.625-.452-.704.824-1.252L624.231 1l.706.332.49.86-1.275 1.604zM563.41 153.288l-.608-1.271 2.178-2.033 1.098.782.354 1.623-2.512-.059-.51.958zm158.983 657.1l-1.76.879-.391-.879-2.737-.43-1.837-1.388-1.799-.391-4.633-.235-.45-.312-.313-.841-.606-.176-2.561.782-1.524-.508-2.249-3.538 1.252-.88 2.345.352 1.154.626 1.603.332.039-1.916-1.505-1.251-.821 1.486-5.65-.723-.469-.333-2.327-4.749-2.795-4.457-.45-.45-1.329.059-1.095-1.759-.782-1.662-1.466-5.414-.919-.997-1.075-.313-1.33-8.561.157-1.623.391-.508.567 1.016 3.734 2.854.918 4.261 1.76-4.925-1.114-.782-.88.078-3.773-4.144-.411-1.173.039-1.72-.312-1.29-1.349-2.756-2.757-2.6-2.131-3.772-5.708-14.015.195-.997-.586-2.971-.645-1.212-.391-2.815 1.72-1.564.039-3.244 1.291-.861 4.75.567 2.776 2.053 3.363-.547 1.29 1.094 4.32 1.407 7.077 4.203 6.803 3.206 4.497.41 1.994-.606 1.837 1.036-.097-.977 1.661-1.759 1.506-.528 1.114.352.469 1.857 1.114.567 1.779-.04-.625-.899-1.486-.332-.43-.41-.098-1.349.958-.88 3.245-1.466 2.757.919 4.437-.899 1.291 1.153 1.525-.919 2.13-3.694.47-.293 1.349-.333.508.743 2.209.997.743-.039 1.349-.782.684-1.153.371-1.701.43-.469.9.039 1.388.645 3.01 2.229 1.115 1.466 1.173 2.639-1.349 4.808.156 1.446.88 1.154.078 2.13-.919 3.362.137 2.405.723 2.091-1.055 5.708.703 6.255 1.291 2.091.117 3.245-1.114 1.583-.763-.645-.098-.684.567-.723.255-1.877-1.506-4.046-.919-1.505-2.463 4.887-1.603 11.591-.958.977-.313 1.642.235 2.971-1.525 1.584-.86 2.893.293.469.919-.059-.391-.84.626-.47 1.349.821.547 1.076.117 2.013-.801.528-.333 2.521 1.134 2.561-.195 1.642-.528.039-1.505-1.329-1.525.664-.802 1.193-1.955-2.424-1.388-2.835-.273-1.387 1.173-2.092.684-.195.508.469.098.703-.332.685 1.309 1.407 1.818-.137.665-.567-1.564-2.736-4.965-3.03-.724.117-1.173.88.411 1.974.665 1.447-.567 1.133-2.092.684-.489-1.211.411-.255-.313-2.932-1.916-1.231.665 1.681-.469 3.01-1.232 1.505-.567 2.111.43 2.033-.313 1.896-.723.469-.743-.097-1.701-1.095-1.544-1.818-.293-1.837-.45-.176-.45.723-.019 1.955 2.678 2.443-.86 2.15-1.114 1.74-1.056 3.069-.313 2.111-.449.391zm25.726-95.076l-1.915-1.055-.548-2.072.118-.587-2.425-4.554-3.03-2.698 2.581-3.401 1.818-.782 4.203 5.61.782.567 1.623.43.175.802.997 5.453-.078.743-.586.547-2.678.489-1.037.508zm-89.281-3.811l-.743-.548-.274-1.427.391-.293v-1.915L657 705.734l.059-1.505.371-4.437 1.662-1.231.254-.724-.215-1.583.899-.254 1.896 1.153.88 1.271.293 4.476.509 2.873-.196 1.505-.645 1.447-3.929 2.776zm93.739 10.164l-.059-1.349-.371-.547-4.927.625-1.896-.821.039-1.075 1.408-1.153 1.446-.078 1.486.449 2.971-1.505 2.894 3.441-.039.293-1.467.567-1.485 1.153zm-21.993 85.673l-1.349-.625-1.349.293-1.114-2.326 3.753-4.632 1.368 3.577-.938 3.401-.371.312zM976.28 1173l-.939-.1-.019-3.01 1.212-5.43.41-.98 1.056-.62-.313 3.65-1.212 4.07-.195 2.42zM731.835 800.048l-1.466-3.069 1.368-2.385.841 1.29.762 3.538-.059.332-1.446.294zm13.86-14.739l.098-3.831 1.232-.938 1.094.098.958 1.876-.097.293-1.486.02-1.799 2.482zm-66.331-57.35l-.371-.274-.098-1.348 1.271-1.506 1.916 2.19-2.718.938z" fill="#4ABBC7" stroke="#D1DDE8" stroke-width=".5"/><path d="M547.54 574l.952-3.285a17.377 17.377 0 00-3.126-15.694v0c-2.841-3.548-4.963-8.298-3.292-12.524.04-.1.079-.181.118-.24.504-.754.21-8.067 0-11.628v-5.546c0-2.877-1.196-5.625-3.303-7.584v0a10.36 10.36 0 00-12.554-1.195l-12.685 7.945a21.33 21.33 0 00-3.093 2.357l-4.502 4.134a11.876 11.876 0 01-12.787 2.133v0a11.868 11.868 0 01-4.877-3.938l-.073-.101a12.327 12.327 0 00-10.001-5.12h-.32c-4.31 0-8.338-2.143-10.745-5.718l-6.478-9.622a26.853 26.853 0 00-2.938-3.634v0a26.832 26.832 0 00-15.914-7.996l-2.904-.373h-6.496c-2.988 0-5.956-.496-8.782-1.468l-10.175-3.5a26.991 26.991 0 01-8.586-4.859l-4.442-3.732a27.005 27.005 0 00-12.707-5.922l-6.437-1.129a27.008 27.008 0 00-8.703-.101l-11.032 1.67a27.004 27.004 0 00-10.006 3.638l-3.678 2.241a27.01 27.01 0 01-9.883 3.619l-2.695.42a27 27 0 01-4.164.323h-20.559c-3.731 0-7.421.773-10.837 2.271l-10.781 4.724a27.063 27.063 0 01-4.048 1.403l-9.557 2.482a27.026 27.026 0 00-7.662 3.326l-7.215 4.571a26.587 26.587 0 01-4.43 2.261c-4.986 1.978-12.035 4.734-12.465 4.734h-20.206c-2.244 0-4.471-.362-6.6-1.071v0a20.897 20.897 0 00-8.877-.946l-9.707 1.063a27 27 0 01-16.326-3.392l-5.599-3.197-6.496-3.054c-4.889-2.299-15.953 3.468-11.12 5.883v0c.504.251 2.098 9.952 2.831 14.771v0c1.583 8.607-3.904 16.93-12.438 18.867l-1.485.337a17.915 17.915 0 00-7.216 3.476l-4.552 3.639a27.054 27.054 0 01-3.54 2.396l-6.088 3.452a16.063 16.063 0 01-7.923 2.09h-1.844a12.223 12.223 0 00-9.542 4.584v0a12.222 12.222 0 01-10.08 4.571l-8.169-.36a26.996 26.996 0 01-12.999-4.002l-8.812-5.443a15.156 15.156 0 01-4.255-3.928l-2.012-2.741c-3.698-5.038-2.751-12.098 2.143-15.985v0a11.63 11.63 0 004.238-7.193l.708-4.246c.294-1.765.38-3.559.255-5.344l-.602-8.621a27.002 27.002 0 00-.665-4.358L62.808 488.2" stroke="#FFD897" stroke-width="6"/><path opacity=".5" d="M307.288 343l7.968-18.36h.192l7.968 18.36h-4.032l-5.088-12.912 2.52-1.728L310.72 343h-3.432zm5.448-6.384h5.304l1.224 2.928h-7.608l1.08-2.928zm30.189-.144c0 .56.168 1.096.504 1.608.336.512.776.928 1.32 1.248.56.32 1.168.48 1.824.48.72 0 1.36-.16 1.92-.48.56-.32 1-.736 1.32-1.248.336-.512.504-1.048.504-1.608v-11.136h3.432v11.208c0 1.296-.32 2.448-.96 3.456-.64.992-1.504 1.776-2.592 2.352-1.088.56-2.296.84-3.624.84-1.312 0-2.512-.28-3.6-.84a6.865 6.865 0 01-2.568-2.352c-.64-1.008-.96-2.16-.96-3.456v-11.208h3.48v11.136zm38.853-6.864a13.078 13.078 0 00-2.064-.912c-.688-.24-1.336-.36-1.944-.36-.752 0-1.344.152-1.776.456-.432.304-.648.76-.648 1.368 0 .416.16.792.48 1.128.336.32.76.608 1.272.864.528.256 1.072.488 1.632.696.512.192 1.016.424 1.512.696.512.256.968.584 1.368.984.4.384.72.872.96 1.464.24.576.36 1.288.36 2.136a4.74 4.74 0 01-.696 2.496c-.464.768-1.144 1.392-2.04 1.872-.896.464-2 .696-3.312.696-.672 0-1.36-.064-2.064-.192a11.96 11.96 0 01-2.04-.624 11.077 11.077 0 01-1.944-1.08l1.536-2.712c.416.304.864.576 1.344.816a9.2 9.2 0 001.488.528c.496.128.952.192 1.368.192.416 0 .832-.056 1.248-.168a2.327 2.327 0 001.056-.624c.288-.288.432-.688.432-1.2 0-.352-.12-.672-.36-.96-.224-.288-.536-.552-.936-.792a7.232 7.232 0 00-1.272-.624 24.09 24.09 0 01-1.68-.72 9.411 9.411 0 01-1.632-.984 4.942 4.942 0 01-1.224-1.464c-.304-.592-.456-1.312-.456-2.16 0-1.024.224-1.912.672-2.664.464-.752 1.112-1.344 1.944-1.776.832-.448 1.792-.696 2.88-.744 1.424 0 2.576.168 3.456.504.896.336 1.696.736 2.4 1.2l-1.32 2.664zm17.76-4.272h11.904v3.36h-4.296V343h-3.48v-14.304h-4.128v-3.36zm35.014 0c1.104 0 2.088.144 2.952.432.864.272 1.584.672 2.16 1.2a4.924 4.924 0 011.344 1.872c.304.72.456 1.536.456 2.448 0 .72-.112 1.44-.336 2.16a5.349 5.349 0 01-1.056 1.968c-.48.592-1.12 1.072-1.92 1.44-.8.352-1.792.528-2.976.528h-2.496V343h-3.48v-17.664h5.352zm.6 8.688c.528 0 .968-.088 1.32-.264.352-.176.624-.4.816-.672.208-.272.352-.552.432-.84.096-.304.144-.584.144-.84 0-.192-.032-.432-.096-.72a2.641 2.641 0 00-.336-.912c-.176-.304-.448-.56-.816-.768-.352-.208-.832-.312-1.44-.312h-2.496v5.328h2.472zm3.264 2.16l4.368 6.816h-4.056l-4.464-6.72 4.152-.096zM458.061 343l7.968-18.36h.192l7.968 18.36h-4.032l-5.088-12.912 2.52-1.728-6.096 14.64h-3.432zm5.448-6.384h5.304l1.224 2.928h-7.608l1.08-2.928zm27.655-11.28h3.48v14.304h8.304V343h-11.784v-17.664zm29.775 0h3.48V343h-3.48v-17.664zM541.386 343l7.968-18.36h.192l7.968 18.36h-4.032l-5.088-12.912 2.52-1.728-6.096 14.64h-3.432zm5.448-6.384h5.304l1.224 2.928h-7.608l1.08-2.928z" fill="#fff"/></g><defs><clipPath id="clip0_68_1448"><path fill="#fff" d="M0 0h865v821H0z"/></clipPath></defs></svg>