<svg width="1440" height="834" fill="none" xmlns="http://www.w3.org/2000/svg"><g clip-path="url(#clip0_50_1457)"><path d="M763.46-384.524v-1.117l1.922-2.449-4.651-3.131 1.054-2.449 1.302-.651 4.744.155.31-1.086-.341-2.945-.93-1.829.868-1.271 3.007.155 3.349 2.17 4.402.217 3.1 2.232 1.892.279 14.757-.992 4.402 1.395 5.426-3.72 4.619.093 1.892 3.596-1.147 2.481 1.829-1.861.248-.806-.682-3.999.651-1.209 4.495-1.612 3.535 1.302 2.232-.186-1.302-.155-2.388-1.767-.372-1.582.248-9.828 1.892-2.976-5.085-3.782-1.705-2.418-1.395-.869-2.542-.465-4.806.807-4.154 2.232-.651-.062-3.256-3.256-.651-2.232-3.534-1.891-3.163.279-.217-.372 3.69-4.402 3.72-1.706 3.566 3.504 2.542 6.014 1.302.124 1.023-1.86-1.457-4.526-1.55-2.791 1.178-.279 3.193 1.086 2.17-1.148 5.488 4.589.341 1.488 5.332 6.821 1.83.403 1.55-1.209 3.441-5.147 1.457.124 2.636 2.821 5.053 9.146 1.24.992 2.294.682 1.892-1.271h1.674l1.705 2.481 4.774 2.015 2.295.062 1.643-.527 3.255-1.767 1.24-1.675 3.659.62.372 1.055-2.326 1.333-.527.806.155.837 1.055.992 2.418 1.023 1.86-.868.992-1.302.775-.124 4.558 3.472-.403.651.465 2.76.651.527 5.487-.807 1.736.714 3.194.279 2.79-.341 2.48-1.892 3.318-.186 3.348 4.651 4.247 2.201 2.915 2.418 3.658.341 1.302.589-.186-.651 1.364-3.534 2.077-2.077 1.737-.744 1.953.868 4.991-.589 2.574-2.078-.776-.434-1.922 1.148-.341-.838.713-2.573 3.101-.837 2.294.062 4.278-3.41-.124-2.387 1.24.031 1.148 1.333-1.024 1.643-5.735 4.867 1.426 1.675-3.875 3.968-.155 1.085.651 1.612 1.581 1.488 1.705-.744.496-1.395 2.759-2.263 4.682-1.364-2.852 3.596 1.147 1.736 2.48-1.147.589 1.023-2.697 3.907.93 2.294.992.93 1.395-.899 2.542-.279.465.806 2.326-.217 1.798-1.395 2.356-5.984-.899-1.178-3.193.403-2.047-.868-.155-.837 3.504-3.472 5.704-3.814 3.752-.682-.775 2.573 2.108 5.922 2.387 3.472 1.519-.031 1.302-.93-.093-.744-2.201-.806.186-.651 2.728-.682 3.411 1.736 3.441 4.651-5.86 4.092-1.984 2.294-3.41 5.488-.775 4.154-4.248-1.581-.341 2.294 2.078 3.845-.032 3.317-.558 3.255-2.356 3.535-.31-1.085-2.728.93.124-6.108-.527-.527-1.054.248-1.333 3.596-2.884 2.512-1.364.093-.465-1.334-1.643-.651-3.503 1.365-2.233 1.829-1.209 2.077.093.961 1.364 1.054-.899 2.015-1.488 1.24-.62 3.876 1.457 4.309 1.302.713 1.861-.465 1.457-1.643-.186 2.573-1.054 3.597-2.14 3.286-.93 6.232-.93 1.798-3.906 2.635-4.434 5.736-2.728 4.712-.062 2.511-4.216 2.853-1.364-.031 2.077 6.014 1.426 2.14 2.232 1.891 4.31 1.55 6.107 3.906 3.132 2.853 9.021 4.681.962.837.806 4.248 1.86 2.17 8.371 3.999 3.441 2.852 3.131 3.411 8.898.372 3.565 1.86 7.813 5.55 4 1.705 1.86-.062 3.472 1.147 3.07 1.519 4.092 6.511 4.77 4.061V90.443l-227.744.031-44.862-.031-30.104.217-.186-314.991v-83.368l3.007.992 3.225 2.791-.372 6.324.558.682 2.201-2.728-1.271-8.402.372-.775 3.472.961 4.341 2.201 6.944 7.751.279 1.674 1.861-.713-2.295-3.007-1.24-2.573-.434-2.574.744-1.457.372-2.325 5.178.899 2.139-.713 2.697-2.604-6.014 1.891-3.039-1.953-2.418-3.162-.558-1.613 1.24-.62 2.667-.279 2.201-1.55.124-.744-3.783 1.271-4.03-.744-2.852-1.643-3.256-3.1.403-2.76 2.016-3.844 2.077-2.759 8.092-5.085 1.829-8.619-.186-1.581 1.581-6.231 2.387-2.481.31 2.171 1.178.682 3.256-.589 4.123-2.791 3.379-3.565-.341-1.271-2.108-2.884-1.147-.961-1.147-.248-.279-.744.31-6.076.558-1.519 1.395-.621.465.869.992.465 1.271-.279 2.171-1.551.868-1.891-.31-4.557.341-1.147 5.208-2.326 3.101 3.535 2.976-.217-2.852-.837-.962-3.628.9-2.201.248-2.728-1.024-.775 1.644-.682 4.774 1.519 4.279 7.224zm2.108-23.997l-3.287-2.728-6.169-2.542-6.201-4.868-2.511-6.604-1.798-6.665.248-2.511.713-.559 4.681 4.093 1.395 2.263 4.434 1.395 4.712-1.116 1.83-1.705 3.534 1.519 3.937-3.038 1.023-.093.682 2.325 1.737 2.48.155-.868-1.147-2.883.403-1.705 2.232-1.767 4.929 1.984 3.721 4.898.279 2.574-8.588 9.021-1.085.155-4.155 2.667-5.704 4.278zm200.249 76.919l.527-.868 1.457-.093-.868 4.34-1.767.682-4.651-1.24-3.999.589-8.557-2.139 1.178-5.922-.248-2.542.775-2.883.961-1.643 4.558-.868 1.085-.838-.961-2.17 2.821-2.356 1.457.093-.248 1.581-1.302.899 1.24 3.597 3.193.558 1.117-1.178-.341-1.179.62-.837 1.116-.31.992.713.248 1.272-3.318 3.41-1.767 1.147-2.077 4.619.062 3.194.961.837 4.496.682 1.24-1.147zm-215.937-80.36l-5.58-2.139-7.782 1.984-1.86-.372-.527-.837-.248-.899 1.86-3.38 1.55.93 1.271.062 1.24-1.209-.093-4.743-.558-1.457 2.759-4.806 2.977-.62 4.96 12.401 2.387.62 2.512 2.264-.775 1.705-4.093.496zm202.295-13.053l.124-1.581 4.558-6.603 2.883-5.829 1.519-.806-1.643 6.325-5.487 7.688-.745.682-1.209.124zm-131.515-3.813l-.992-1.054-1.178-3.255-.992-5.674 2.573-.992 1.612 5.302-.062 3.348-.961 2.325zm150.055 154.365l-1.922-1.427-2.108-3.131.62-1.798 1.922-1.891 1.519 1.891 1.271 4.123-.868 2.202-.434.031zm-28.709-68.145l.093-1.24-1.085-1.892-.868.589.527 1.644h-1.426l-.527-.651.31-2.884 2.945-2.325 1.427.248 1.488 2.015-.465 2.202-1.116 1.798-1.303.496zm-.62-74.408v-1.581l3.07-2.449 2.542-.124 4.464-3.472-.31 1.705-3.379 2.573-6.387 3.348zm11.503 136.166l-.869-.434.682-2.914 1.923-1.303.961.434-.589 3.814-2.108.403z" fill="#4ABBC7" stroke="#D1DDE8" stroke-width=".5"/><path d="M202.861 90.505l.59-1.147.031-4.558-7.534-7.967-4-7.503-3.658-9.27-3.565-2.17-3.039-8.62-.279-1.642.372-3.349-2.077-3.441-4.247-4.96-1.209-3.535-.186-7.286 1.364-3.534.744-4.526 2.883-9.301 2.325-4.65 4.775-3.752.837-3.131.465-4.186-.744-4.836 1.953-5.953-.372-3.534-1.829-5.054-2.759-3.906-.496-2.945 4.836-9.797 4.495-12.929 3.256-4.836 1.984-1.116 2.48-.434.434.868-1.674 3.162-1.643 9.518 2.17 4.588-1.054 6.697 1.457 1.488 7.348-3.1.93-3.875 2.046-5.24 5.55-9.642.868-2.976 9.828-5.457 3.689-.279 6.48-3.224 6.945-2.666 5.642-6.666 2.046-1.581 4.248-1.83 3.999-6.014 7.906-3.69.868-2.294 2.139-1.178 2.046-.248 5.581-1.984 4.402-2.728 3.411-2.883 2.728.589 1.457 1.457 1.488.403 6.418-3.442 3.317 1.148 1.085 1.24 2.357 1.054 2.511.465 2.139-.031 9.394-1.922 5.55-2.419 7.378-7.099 3.69-2.202.465.9 1.426.031 10.448-1.737 3.782.217 4.837-1.612 5.022-6.014.992-2.698 3.38-2.573 3.658-.341 8.247 2.046 4.96 1.922 6.852-3.534 15.285-2.232 3.286-1.085 18.23-7.596 5.022-2.604 8.402-7.007 7.131-9.642 5.084-10.944 4.651-6.263-.403-2.852 1.209-2.666.806-.775 2.201.527 1.674-.899 2.481-1.984 1.798-2.636 2.077-1.023 7.038-5.549 1.023-2.481-.186-1.922-.992-.93-2.667-.744-1.519-2.263-.372-6.635-1.984-5.146.093-6.852 1.054-4.186 2.759-4.743 4.124-3.906 2.294-1.458 4.279-.031-1.706-3.813 1.426-1.922.931-.372.744.713h.806l3.782-1.302.341-.992-.868-1.271.806-3.38.961-1.085 1.767-.372 1.768-1.953.186-1.922.713-1.147 2.387-.869 2.294 2.295-.713.899-1.674-.186-1.116 3.875 2.139 2.914 2.573 1.613.682 2.666 6.449 12.06 8.278 13.238.744 2.884.62-3.07-1.147-2.232.124-2.759 1.86-5.643-1.519-4.65.62-2.666 2.139-.062 4.279 5.177 2.48 2.232 1.209.527.837-.465-1.302-.62-1.55-1.922-1.209-4.836 3.193-3.659-1.116-.589-2.573.775-.527-.372-1.644-3.503-3.689-4 .186-3.813-3.782.062-2.574-2.325 2.295-.093 4.96 1.116 2.294-3.472.279-1.799-.341-1.364-3.751-.744-1.209-1.085-.093-3.069.465-.992 5.239-1.147 2.698 2.108-.744 1.643-1.737.465 3.597 3.782 1.767.372.062-1.364 2.418-3.286 4.093.589 1.798.806.899.589 1.209 2.883.93.652 3.472.186 1.737-1.985 3.069 1.488 3.472.342 5.054-.714 3.596 1.582 1.922-.806-2.604-.248-3.968-1.861-2.76-.651-1.767-.124-2.759.806h-2.077l-.589-.62-.837-3.751 1.829-4.155 1.364-.31 1.612 2.45 2.511-1.736-.248-3.194.992-3.627 3.783-3.814-1.891-.775-1.83.527-2.728 4.651-1.581.031-2.945-2.542-.961-6.821 2.883-6.604 1.054-.465 3.131 1.798 2.512-1.302.589-.868-.372-6.665 1.426-.341 6.975 3.565 2.729 2.635 6.324 3.069-3.534-3.131-.186-.775 1.612-2.945-.713-.744-2.883-.031-3.349 1.24-.372-1.984 1.24-1.737 1.303-.62.961.62 1.333-2.294-1.054-.279-4.403 2.914-.93-.031-.992-2.635 1.085-1.395 1.457-.682 1.985.589.713-.217 1.767-1.24-.496-1.178 2.015-1.426 2.325 5.239.589.372.341-1.488-.434-2.976 3.969 2.325.093 1.24 1.333.651 3.131-.155.682-.651-.589-.496-1.023.093-.899-.806.992-.961-3.658-2.604-3.318-1.644 1.116-1.302.9-.31-3.597-5.332 3.627-5.178 3.132-2.604 1.767.744 6.759.155.341-4.216-.651-4.062.434-2.325.868-.651 3.72 1.767-2.914 12.339.62-.651 2.077-7.161 4.062 2.077-.621 3.72.652 1.209 1.984 1.24 2.976-3.317 1.581-1.116.961-5.922 2.574-5.239.124-2.17-2.202-5.643-2.139-1.364 1.674-.372 2.698.403 2.325 1.178-.279 2.604-1.736.744 1.147 3.783 1.426.403 1.798 1.829.868-1.364-.62-1.829 1.333-3.101 3.287-2.604 2.387-.341-1.581 3.875 3.813 4.93 1.085.31 3.472-3.658 2.884-5.24-1.457-6.077 3.782-1.519 3.286-.775 2.077 1.674 1.923 2.481-.589 1.302 2.387 2.945.837-1.333.031-1.116 2.945-.124 6.17 1.984 3.224 4.557 4.62 3.101 10.076 14.013 1.457-.713 5.704 4.899.62 3.379-1.612 2.325-2.387 8.061.341 3.658-.217 6.604-1.767 3.534 1.612-.93.93-1.302 1.178-7.627 1.674.682 2.543 2.512.992 3.286.155-3.348-2.263-3.938-1.086-4.34 3.845-5.271.682.124.899 4.434 3.193.093.341-1.581-1.333-2.419-1.054-4.557 4.992-1.426 15.625 3.906v83.368l.186 314.96-.403 217.704-6.976 3.038-8.029 4.682-12.495 5.673-5.735 2.294-9.239 1.799-13.548 5.239-7.069 1.24-14.727.682-9.673-.93-7.409-2.139-3.721 1.829-3.255-.713-5.581 3.038-9.797 8.061-2.387 1.054-4.774 1.023-10.324 5.705-3.907 3.503-4.464 2.698-11.564 1.891-4.062 1.612-3.1 2.542-2.821 3.596-3.504 10.169-1.581 6.666-3.224 2.263-3.038 3.194-1.148 2.294-.031 1.085-1.488 1.643-5.053 3.442-5.798-.434-.868.341-2.015 2.728-1.55 1.178-2.294.744-2.264-5.332-2.79-1.179-5.829 1.985-3.875-.559-4.588.187-.62.62-4.806.496-2.666-.527-1.891.744-1.21 1.395-.372 2.046-4.464.465-1.302-.434.713-1.519-.992-3.503-1.953-2.512-.682-.248-2.605.465-1.86 1.767-2.728.776-8.681-3.132-2.077-.155-4.217-.093-9.58 1.674h-6.355l-2.387 1.272-8.464 1.178-4.155 2.294-5.518-1.395-8.34-.434-6.449 1.984-2.48 2.728-4.123 2.201-1.768 2.016-2.79 4.898-.465 2.48-4.774 4.682-3.938 2.325-4.371-1.55-5.643-.527-5.797 3.937-.682 1.023 1.178 1.302-1.178 1.334-2.729 1.674-5.425 1.767-1.984 2.046-1.024 2.697-3.565 2.667-6.728 3.596-8.215 1.488-.124.837.806.868 4.65 1.023-2.077 1.179-2.542-.466-2.512-1.984-1.922-.713-2.108.124-1.054.744-.775 2.822-2.573-2.047-6.759-2.852-12.866-.062-1.768 1.643-.775.031-4.991-1.612-4.124.651-4.774-1.364-8.185-5.457-8.185-1.891-2.015-4.743-3.348-3.876-5.581-5.704-5.115-3.41-6.108-3.194-2.449-.279-2.449.589-1.551 2.015-3.813-4.061.031-3.503-1.767-12.526-.124-7.006 1.457-6.759 1.426.403 2.077 3.1 4 1.706 3.193-.279 2.728-.993 1.116-.651 9.518-13.703-1.457-11.285-2.511-12.401.775-2.698 2.573-3.193-.124 1.271-1.922 2.139-.062 1.613 1.364 3.875.93 1.395.62-.434-.062-2.17 1.551-5.705-.992-9.983.775-5.115-.589-3.814.186-7.967-1.272-6.976-.806-2.201-8.215-14.975-2.326-6.945-1.953-4.526-4.805-8.371-4.062-10.386.248-1.054-1.054-7.875-2.232-7.689-.682-.589.155-15.036 1.209-7.038-1.674-5.859-.868-1.396-.527-3.596-1.768-4.185-7.254-8.619-.93-2.821-.248-6.263-2.729-5.519-6.572-9.828-2.543-1.55-2.604-3.72-2.015-9.084.434-2.821 1.116-2.636-.651-3.937-1.643-5.736-4.589-9.518-4.65-8.711-7.193-10.386-10.262-10.914-1.891-5.983 1.55-3.1-.217-3.442.124-.899.651-.465.558 7.255 1.023 2.108 1.055-5.953 4.991 6.17.682 2.015.403 6.356.775 2.294 2.48 3.162 1.055.217.093-.961 2.17-1.488 1.426.341 2.418-3.596.186-6.387-2.418-3.224-4.62-3.038-3.41-3.535-1.953-8.06-3.41-5.52.589-3.068 2.046-3.256.961.713 3.131 5.643 3.566 3.07 1.24 3.503-.806 4.402-.93 1.023.093 3.162.992 2.884 1.705.155 1.147-1.24 2.697-5.209 1.767 8.743.931 2.387 3.72 4.992 4.216-3.318.899-3.007-1.023-1.457-.651-2.635 1.147-7.224 1.178.558zm-34.816 5.364l-.992-.806-4.992-7.565-2.511-5.054-1.55-5.828.217-3.256 1.333-1.922 1.674.403-.682 1.643.124 1.023 3.969 11.347 3.41 6.201.682 2.45-.682 1.364zm380.873-383.695l-.279-.961-1.798-1.674.279-1.55.837-1.333 2.201-.899 2.914 4.867-4.154 1.55zM240.84-96.351l-1.147-.96-.837.805-.248-.279.031-1.89 3.441-4.651 1.117-.682.403.217.465 2.449-.155 1.085-1.954 3.038-1.116.868zm328.819-219.068l-1.767-.961.217-2.635.775-1.984 1.581-1.643 1.55 1.736-.775 3.782-1.209.589-.372 1.116zm804.531 794.176l-3.91-1.984-4.46-6.666-.9-2.449.06-5.705 1.61-7.937 8.84-6.51 3.94 2.232 1.76 2.077 3.1 1.147 2.08 1.333-1.52 1.365-3.13-.434-2.51 1.209-1.61 2.232-1.92 7.72.74 8.526-.25 1.209-1.92 2.635z" fill="#4ABBC7" stroke="#D1DDE8" stroke-width=".5"/><path d="M1405.66 545.32l-59.68-30.073-3.04-.248 2.73-4.712.34-3.007-3.1-6.325-2.14-2.728-1.74-13.704-3.66-2.325-5.64-2.418-2.88 1.116-4.75-.899-3.13.527-3.13 3.906-3.04.279-5.64 1.985-4.53-.31-7.5-2.357-3.01-2.356-3.47-.527-2.11.279-1.17 1.24-3.54 1.519-6.97-.62-9.62-1.829-2.35-.992-3.97-3.813-2.45-1.923-.84-.093-2.54.559-2.94 1.612-2.95-.279-1.15-.931h-4.12l-4.22 1.086-.62.744-1.17 4.278.52 4.217-5.95 1.674-1.3-.341-4.16-2.419-7.07-8.277-1.73-3.969-.78-.806-1.92-.62-3.41-3.038-2.6-3.597-5.77-3.069-5.18-3.937-2.38-.868-1.4.31-2.08-1.55-.55-.869.77-2.356-1.3-2.015-2.73-.682-2.51-1.55-1.55-3.411-.9-5.115.81-4.061.03-2.574-.44-.651-7.16-3.906-5.02-.341-3.97-1.612-.47-1.117-2.1-1.395-1.93.651-.58.837-1.09 4.806-1.52 1.922-2.85-.558-1.15-1.333.09-.806-1.79-4.806-2.92-2.697-.15-5.828-4.68-7.875-2.7-1.86-3.88-1.768-5.27 1.086-4.99-1.303-2.98 1.147-1.89 2.605-1.64.868-.59-.806-3.75-2.295-5.52-2.573-5.8-.434-1.02-.279-1.58-1.55.15-197.49 4-.031 67.59.031h196l2.58-1.271 3.93-4.929 10.76-9.146 3.72-1.023.87.155.53 1.116 2.94.868 10.36-.899 4.83-1.86 4.56-.558.93.217 2.57 2.666 2.33 1.581 5.61.155 5.09-1.054 8.49 3.875 8.59 7.41.4 5.829 1.37 3.038.74.341 1.64-.403 1.61-1.705 3.04-6.201 5.8-2.573 1.24 2.387 2.08.992 6.45-3.1 1.08-6.232-3.04-6.882 3.26-2.574 3.78-1.86 6.7-2.201 1.36-.93.68-1.736 1.93-1.613 1.48.217 2.21 2.264 5.51 1.209 6.3-.651 5.55.372 2.57-3.411 4.5-.837 3.69-1.426 2.51-2.046 2.41 2.201.47 2.512-1.09 8.277.62 4.341 1.55 2.108-.62 7.689-5.3 6.944-3.72 10.914.93 2.697-3.75 21.361-1.64 6.263-6.26 17.609-.44 10.386.53 1.892 1.18.155.59 2.387-3.45 11.533-.65 4.557-3.53 11.689-2.98 6.076-6.82 8.619-1.55 4.03.99 5.24-.4 5.55-5.86 4.96-2.51 2.914-5.18 3.225-.28 1.705.84 1.798-6.45 2.263-4.74 2.45-4.81 7.223-3.19 7.906-.74.62-1.71.124-1.58 1.271-.34 1.829 1.42 1.272-1.08 4.309-3.84 5.146-1.46 10.852-.81 2.914-1.21.93-1.95-.217-2.64 1.054 1.86.496 1.37 1.271-2.73 4.434-3.04 2.263-3.01 4.433-3.16 9.208 1.37 1.674-1.68 7.627-2.17 1.364-.68 2.357 1.18 3.441 2.35 2.449-.52 2.728-.9.775-1.12-1.209.41-.837-.47-1.891-.9-.093-2.14 1.333-.25 1.364.87 2.109-1.89 2.108-3.6 1.984-1.82 3.441-.19 1.737-2.48 7.192-1.71 2.759-6.51 14.262-.83 7.1-.07 8.991-1.95 2.542-1.8 9.983-1.92 6.975-2.14 5.395.16 6.108 3.34 3.875.44 2.914-.03 1.395-.99-.31-1.43 1.054.06 4.899 1.12 4.774zm-29.55-69.198l.25-1.241-.74-8.525 1.92-7.689 1.61-2.263 2.54-1.21 3.13.434 1.49-1.333-2.08-1.333-3.1-1.116-1.76-2.108-3.94-2.232-8.84 6.51-1.61 7.937-.06 5.736.9 2.449 4.49 6.666.81.682 3.38 1.147 1.61-2.511z" fill="#4ABBC7" stroke="#D1DDE8" stroke-width=".5"/><path d="M945.51 408.287l-3.349 5.394-2.728 1.209-2.883 4.93-3.473 2.17-2.077 4.124-2.387 7.223.837.403 1.488-.186 4.496-3.162.465 2.139-.527 8.03-1.612.682-.9-1.705-2.821-3.131-2.015-1.241-2.108.31-1.488 3.504-1.209-.031-1.272-2.449-4.433-5.798-4.992-5.146-2.635-2.109-1.085-.341-3.472 1.209 1.333-3.689 1.922-2.759.155 2.542 4.403 4.712 1.767 1.21 3.348-1.086-3.41-1.364-.434-1.271-.186-1.054.558-1.24-1.488-8.371-2.574-6.852-.403-4.588-2.263-3.503-5.395-6.077-6.479-5.27.93-3.876-.341-2.79-1.674-4.775-3.411-7.037-3.844-1.488-6.232.992-2.666 1.519-2.046-2.295.031-1.023-2.48-6.603-4.093-9.301 2.697.186 1.334 1.24.465 2.015 2.294-3.131.682-2.046-.682-3.535-2.387-3.379-2.109-1.829-.961-.155-5.332 1.674-2.17 2.077-1.272-.248.062-3.224.962-2.201 1.705.682.558-.93-4.186-5.829-3.379-1.984-2.108-1.891.372-1.458-2.294-.713-.837.682-.497 2.016-2.759 1.736-10.727-.744-1.023-.248-2.356-2.543-3.1-1.116-4.744-4.495-1.612-.868-6.759-.806-3.224.651-2.511 2.325-2.915 1.023-2.108.155-2.325-.589-5.674-5.736-8.681-6.293-13.61-7.038-7.286-2.728-1.116.124-3.441 2.79-5.674 2.201-1.705.217-17.858-1.333-3.844.124-7.162.558-3.286.837-20.4 1.737-7.751 1.271.186-217.58 30.104-.217 44.862.031 227.744-.031h100.98l.09 113.316-.15 197.49-.87-1.147-.12 168.657-3.94-.403-2.67.806-2.45-.093-5.67-3.038-5.86-5.891-3.97-8.03-3.93-5.983-2.42-1.706-1.89.093-6.05-8.122-2.11-4.217 1.06-2.17-.1-1.705-1.58-3.938.62-3.875 2.39-1.984 1.3-3.349-.03-5.611-1.24-4.434-5.89-14.354-9.3-12.401-6.14-6.604-3.6-2.914 1.65.527 9.17 8.03 6.08 8.34 2.57 5.301-.37-2.883-1.55-4.372-1.27-1.891-4-4.619-11.72-11.224-.06-3.658 2.08-.837 2.54 2.201-.31 5.178.53.713 3.16-.341.87-3.596.4-5.488-.56-3.937-4.83-2.388-2.61 2.574-1.86.558-1.98-.093-1.71.744-.68 1.674.34 1.085 1.92.62.65.806-1.52 1.953-9.08-.775-2.39.992-2.01 2.45-1.83 1.271-12.15.651-2.76-2.077 2.01-3.566 4.47-2.232 5.14-5.55.96-5.425-.4-1.426.34-2.605 1.65-3.596-1.12-6.635.77-3.658-.27-1.798-2.05-3.534-5.4-6.604-1.86-6.697-4.27-7.286-.81.186-2.05 4.775.9 1.798-.49 1.705-3.2 3.287-1.175 4.061-.465 7.565-4.247 13.827-.031 3.411-2.481 2.015-4.774-2.17-2.449-.62-1.302.248-6.325 2.387-1.426 2.325-.806.527-4.682-.713-2.604 2.294-1.922.713-1.085-.527-.962-1.612 1.241-2.015 2.294-2.263.806-1.954.558-5.766 1.581-2.325 2.821 1.116 2.884-.775 2.976-.186.589.93 2.883 1.302 1.675-.899.682-1.705 1.488-9.735-.589-7.596.403-7.534-1.395-5.115.496-.682h1.643l.992-1.923 1.705-5.642.279-2.915 5.891-7.533 3.782-3.721 1.431-.403.55-1.457-1.082-4.743-3.41-6.542 1.023-3.038 1.922-1.364 1.797-.713 2.17-.063.93-.744-.25-2.046-1.02-1.953-1.83-.775-1.952-8.867-1.767-3.937-.93-4.806-1.798-1.364-.279 6.48.775.434.775 1.364.217 4.247-1.116 5.767-1.767.093-4.279 1.364-3.596 3.906-3.473 6.914-.186 3.317-.62 1.861-5.084 9.518-2.294 1.922-4.093.155-2.387-1.457-2.201 3.286.62.434-1.302 1.364-9.549 5.054-5.612 4.402-1.922 1.984-.186 1.302-1.674 3.163zm54.038 62.564l5.112 1.395 1.65 2.232.03 2.171-2.45 2.201-4.001-1.953-5.394-.403-4.744 2.232-.62.868.434 2.852-.961.961-4.402 2.17-3.287-3.348-4.433-.837-1.24.403-.372 1.519-.961.558-4-.372-4.433.682-6.325.186-1.085-1.798-4.775-3.968-.155-1.457 1.582-4.651 12.339-3.658 2.635-.031 3.162-.744 6.635-2.946 7.038.589 1.984 1.892-.031 3.348.465.62 3.224.434 3.318 1.891 1.984.155 2.077-3.193z" fill="#4ABBC7" stroke="#D1DDE8" stroke-width=".5"/><path d="M1392.23 554.745l-4.09 2.016-4.96.496-16.28.093-5.64.806-5.55-.217-6.23.434-11.63 3.441-6.88 3.411-7.35 5.58-5.67 5.302-5.36 5.332-8.19 9.518-3.22 2.852-7.54.962-7.38 1.86-2.63-.837-3.07.186-1.39.589-1.18 1.767 3.75 6.852 3.87-2.729.72-2.604 1.21.558.49 11.657-1.98 2.512-1.06.527-1.58-.745-.93-1.395-2.45-6.417-3.53-4.434-2.61-1.116-1.64.527-.46 1.333-3.32-.279-2.73-5.518.81-1.302-1.06-1.985-2.97-.465-2.33 1.551-1.7.279-1.4-.806-5.05-5.116.56-3.999 2.97-1.241 1.18-2.077-2.36-5.394-1.39-.899-6.36.465-1.42 4.774-6.14 6.325-2.98.589-1.36-.217-4.71-5.488h3.99l3.54-1.581 4.93-8.681-1.09-3.999-4.15-6.418-1.95-.992-3.14 1.426-4.49 4.31-5.52 4.123-4.74.496-.59.589.18 1.55 4.65.806 2.61-.899 1.55-1.147 2.32.651.5 1.24-.37 1.892-1.74 2.666-.84.62-2.88-.682-5.18 1.116-1.08.651-10.14 6.852-7.38 9.084-3.72 1.023-1.24.868-.74 1.891-4.37 3.224-1.27-.341-2.08-2.449-1.89-1.116-6.98-2.232-1.58-1.612-2.85-1.768-2.58-.341-5.67-2.294-9.02-6.976-5.24-2.077-3.72.899-.62.713-3.04-.062-3.29-1.891-3.28-2.728-4.84-1.054-2.35-.031-2.42.682-1.99 1.674v1.333l1.03 2.015-2.67.744-3.94-1.922-2.91-3.534-5.86-5.488-3.01-1.984-4.56-2.108.13-168.657.87 1.147 1.58 1.55 1.02.279 5.8.434 5.52 2.574 3.75 2.294.59.806 1.64-.868 1.89-2.604 2.98-1.147 4.99 1.302 5.27-1.085 3.87 1.767 2.7 1.86 4.68 7.875.16 5.828 2.91 2.698 1.8 4.805-.09.806 1.14 1.333 2.86.558 1.52-1.922 1.08-4.805.59-.837 1.92-.651 2.11 1.395.47 1.116 3.96 1.612 5.03.341 7.16 3.906.43.651-.03 2.574-.8 4.061.89 5.116 1.55 3.41 2.52 1.55 2.72.682 1.31 2.015-.78 2.357.56.868 2.08 1.55 1.39-.31 2.39.868 5.18 3.937 5.76 3.07 2.61 3.596 3.41 3.038 1.92.62.77.806 1.74 3.969 7.07 8.278 4.15 2.418 1.31.341 5.95-1.674-.53-4.217 1.18-4.278.62-.744 4.22-1.085h4.12l1.15.93 2.94.279 2.95-1.612 2.54-.558.84.093 2.45 1.922 3.96 3.813 2.36.992 9.61 1.829 6.98.621 3.53-1.52 1.18-1.24 2.11-.279 3.47.527 3.01 2.356 7.5 2.357 4.53.31 5.64-1.984 3.04-.28 3.13-3.906 3.13-.527 4.74.899 2.89-1.116 5.64 2.418 3.66 2.326 1.73 13.703 2.14 2.728 3.1 6.325-.34 3.007-2.73 4.713 3.04.248 59.68 30.073-2.63 1.674-3.85.341-3.78 5.766-3.04 1.55zm-142.11 29.609l-2.42-.931-.44-1.953.84-2.759 5.39 1.116 1.37 1.612-.37.62-2.17.031-2.2 2.264zm-.07 5.952l-1.14-1.395-1.65-.713-5.21.434.1-.465 2.35-2.294 3.13-.62.9.589 1.8 4.309-.28.155zm155.61-625.798v.558l2.07 1.985-1.73-5.984-2.2-4.526.03-1.706 1.3-3.44 1.33-1.737 1.49-.403 1.18.496 2.57 3.968 1.52 4.31 4.09 1.674 5.34 3.658 3.81 1.736-1.95-4.619-.03-2.728.93-1.891 2.45.434 2.38 3.565-.99 2.294.25 1.767 4.56 6.48-2.14 14.478 1.89 3.907-.4 5.208 2.23 4.527 2.73 1.488 2.51.372.96 2.201 2.29 1.736 1.61 4.65 2.39 1.303h1.12l1.58 1.116 3.56 4.402 2.3.683 1.8 1.426-.53.837.22 1.023.93.372 1.64-1.612.06-1.984.81-.775 1.49.434 3.5 4.03 4.9 4.371 2.57 7.658 4.09 6.697 4.9 3.751 4.75 1.86 1.67 1.923.99 2.387.34 4.433 5.52 9.146 4.62 1.395 3.32.217 1.3 5.457-.4 3.286-1.37 1.395.19 4.34.74 2.078 1.12 1.054 1.02.28 1.8 4.402 4.84 2.2.12.9-1.61 3.503-2.2 8.991.62 2.418.84 11.069.93 2.263.46 13.238-2.08.651-2.04 2.883 1.02 5.147 3.69 2.852 2.73 3.411 2.11 7.223 2.85 4 .99 2.697-.74 5.053 1.67 4.217 1.55 2.17-2.51 2.046-3.69 1.426-4.5.838-2.57 3.41-5.55-.372-6.29.651-5.52-1.209-2.2-2.264-1.49-.216-1.92 1.612-.68 1.736-1.37.93-6.69 2.201-3.79 1.86-3.25 2.574 3.04 6.882-1.09 6.232-6.45 3.1-2.08-.992-1.24-2.387-5.79 2.573-3.04 6.201-1.61 1.705-1.65.403-.74-.341-1.36-3.038-.41-5.829-8.59-7.41-8.49-3.875-5.09 1.054-5.61-.155-2.32-1.581-2.58-2.666-.93-.217-4.55.558-4.84 1.86-10.35.899-2.95-.868-.53-1.116-.86-.155-3.72 1.023-10.76 9.146-3.94 4.929-2.57 1.271h-196.1l-67.59-.031-4.03.093-.06-113.285h-100.97v-339.639l6.54 5.333 3.22 1.24 6.61 1.581 5.14-.31 1.61 1.178 5.24 2.201 5.65.806 4.4 6.108.71 4.526 1.71 3.287 1.61 1.581 2.57.899 3.38.403 3.32 2.201 2.73 2.759 6.66 1.923 2.3 1.364 3.25 2.914 1.34.558 3.81.217 8.9-1.612 4.62-1.705 2.88-1.55 4.65-3.597 2.54-.899 1.77-3.224 1.89-7.317.5-5.239 8-10.386 3.1-7.007.99-5.085 3.75-9.859-.87-5.859 2.02-12.835 5.86-13.425 1.05-4.247-3.32-9.115-1.52-9.766.5-2.852 1.92-4.93.25-3.844-.74-2.698-3.38-4.03-.28-4.154 2.45-10.169 4.93-9.58-.38-1.52-1.55-1.736-1.52-5.952.28-.992.44-.775 3.44-2.171 1.3-1.581 1.64-4.557 2.02.62 1.08 1.86.04 2.759 1.42 2.17.28-1.457-1.89-5.518-1.49-1.085-4.09-6.139.99-.806-.65-.496-2.2-.155-.28 2.015 1.05 1.426-1.95.62-1.18-.527.06-.775 3.17-6.852 2.94-4.061-.52-1.178 1.51-4.34 1.46-2.171 1.46-.651.84 4.093 3.59-.713.28-.837-2.73-2.667-.12-1.395.74-3.968 5.18-14.882 1.21-7.596-.68-5.983.31-.837 1.24-.899 5.33-.93 1.89-2.512 1.52-3.813 2.51-.093 3.16 1.488-1.05 1.612-2.23 2.046-.25 3.132 2.14-2.728 1.21.093 4.56 3.875 1.45 3.193 2.61 10.603-.87 4.093.93 6.975-.25 4 3.66 3.224 2.32.186 2.21-.992.96.372 2.26 2.48-3.26 5.24-.68 2.883-.15 3.752 1.73.496 1.06-.279 2.97 1.457.93 1.023.13 3.596 1.49 1.55 1.27.124 2.29 1.736-1.86 4.31-.43 3.627 1.45.744 3.32-.372.34.682-.52 7.534.77 7.069.25 1.24 1.33 1.271.87 1.86-.28 3.225-1.89 7.936 2.39 6.201 2.85 3.007.43 5.581 1.31 4.619 1.51 3.256 1.15 1.24 2.42 1.302 4.19.031 4.77-3.72 9.49-4.341 1.39-3.131 1.34.31 2.1 3.162-.4 3.286 1.61 4.372 2.11 2.511 5.09 1.953 2.29.155 2.11 4.682 8.31 3.751 3.69 2.883-.22 2.047-2.54 4.495.12 2.046 1.33 2.202.44 2.573-1.37 3.999 1.9 3.752 1.82 6.231v6.294l1.71 1.705 1.77 4.123-.56 7.131-1.27 1.767-.22 3.597.31 1.023 1.77 1.116 11.5 14.354 1.12-.93 3.13-.527.8.992-2.6 4.93.15 1.085 2.39 4.092 2.64 6.17 1.79 6.604.62 4.867-.62 3.348.5 3.597-.22 2.325-3.1 6.573.25 3.379 6.82 8.929 4.09 1.55-.24 3.937-1.52 3.535-.44 3.751.31 1.178 1.96 2.605 2.94 2.294.84 1.612 3.94 2.573 3 1.426 3.69.093 4.13 4.124 2.29.093 4 1.302 2.26 2.139 3.85.806 6.01-.465.5-1.054-1.52-2.635 1.92 2.201 3.26 5.86 1.33 6.82.81 1.643 1.7 1.83 1.83.434 1.55-.372-.53-2.884.25-1.24 2.05.031.99 1.054.4 3.938 1.61 1.519 2.02.868 4.22-.186 4.15 1.209 2.67 3.224-1.09.434.28.962 1.99 2.449 2.66 2.17 1.77-.775.12-2.108-1.05-.961.46-1.241 2.33.869 5.08 4.557 3.23.589 1.14 1.581 2.14 6.015 1.28.341 1.02 2.852-1.89-.465-1.62-1.643-1.36-.651-1.64.682-2.48 3.069 2.07 5.581 4.07 4.247 2.41 1.674 3.6 1.272 4.47 3.472 1.82 2.325-.34 2.666 1.18 4.465 1.68 1.426 1.3 4.278 1.92 3.38 1.92 1.829-.43 6.852 3.07 10.975 2.32 5.642 2.14 3.07 1.46 1.178.09 3.689-1.02 1.55 2.26-1.147 1.8-1.488.84-1.395 5.27 6.541zm104.48 118.37l-1.46-.31-1.36-1.829-1.83-6.666 1.8-4.402 2.26-3.751-.03-3.194-.47-.806 1.4-2.914 3.5-2.821 1.55-3.039.28-1.643-.34-1.271-2.02-3.286-.65-.372 1.27-2.357 2.89-1.89.28 7.564.77 1.705 1.61 1.054.35 1.302-8.22 19.346-1.49 4.868.5 3.007-.59 1.705zm-468.95-324.881l-.35-2.046.9-3.566 1.93-2.666 2.82-2.139 5.83-.713 1.82-.992 6.48 1.054.19 2.046-1.46.682-2.2.465-1.46-1.178-3.1 1.24.5 1.085-2.08 3.441-3.75 1.427-4.87.899-1.2.961zM1447.73 8.781l-1.83-1.705-1.3-2.884-2.27-2.046-1.3-2.914-.31-2.542 1.49-.341 4.71 2.976.65 1.085 2.17 4.154.41 2.853-.9 1.085-1.52.279zm-166.18-189.956l-2.32-.899-.65-3.225-1.49-2.015-1.55-.744-.84-1.55 1.4-.341 4.77 2.232 2.79 4.031-.99 1.922-1.12.589zm239.53 336.6l-.59-1.302.19-3.224 1.3-7.379 1.3-.31 2.33.403-2.23 7.379-.72 4.248-1.58.185zm.62-13.889l-2.23-6.263v-5.084l2.88-1.581.75.558-1.74 6.573.34 5.797zm-378.36-589.927l-2.11-1.705-.15-2.139 2.01-1.333 1.4-.279 1.64 2.48-.22 1.271-1.61.403-.96 1.302zm3.26-17.176l-2.33-.992-.71-1.116 1.3-1.984 1.86-.341 1.12.527.77 1.364-2.01 2.542zm-95.99 237.019l-.96-2.015 3.44-3.224 1.74 1.24.55 2.573-3.96-.093-.81 1.519zm252.02 1043.626l-2.79 1.396-.62-1.396-4.34-.682-2.91-2.201-2.85-.62-7.35-.372-.71-.496-.5-1.333-.96-.279-4.06 1.24-2.42-.806-3.57-5.612 1.99-1.395 3.72.558 1.83.992 2.54.527.06-3.038-2.39-1.984-1.3 2.356-8.96-1.147-.74-.527-3.69-7.534-4.43-7.068-.72-.714-2.11.093-1.73-2.79-1.24-2.635-2.33-8.588-1.45-1.581-1.71-.496-2.11-13.579.25-2.574.62-.806.9 1.612 5.92 4.527 1.46 6.758 2.79-7.812-1.77-1.24-1.39.124-5.99-6.573-.65-1.86.06-2.729-.49-2.046-2.14-4.371-4.37-4.124-3.38-5.983-9.06-22.229.31-1.582-.93-4.712-1.02-1.922-.62-4.465 2.73-2.48.06-5.147 2.05-1.364 7.53.899 4.4 3.256 5.34-.868 2.04 1.736 6.85 2.232 11.23 6.666 10.79 5.084 7.13.651 3.16-.961 2.91 1.643-.15-1.55 2.63-2.79 2.39-.837 1.77.558.74 2.945 1.77.899 2.82-.062-.99-1.426-2.36-.527-.68-.651-.15-2.139 1.52-1.395 5.14-2.325 4.37 1.457 7.04-1.427 2.05 1.83 2.42-1.458 3.37-5.859.75-.465 2.14-.527.8 1.178 3.51 1.581 1.18-.062 2.13-1.24 1.09-1.829.59-2.697.68-.745 1.43.062 2.2 1.024 4.77 3.534 1.77 2.325 1.86 4.186-2.14 7.626.25 2.295 1.39 1.829.13 3.379-1.46 5.333.22 3.813 1.15 3.317-1.68 9.053 1.12 9.921 2.04 3.318.19 5.146-1.77 2.511-1.21-1.023-.15-1.085.9-1.147.4-2.976-2.39-6.418-1.45-2.387-3.91 7.751-2.54 18.384-1.52 1.551-.5 2.604.37 4.712-2.41 2.512-1.37 4.588.47.744 1.45-.093-.62-1.333 1-.744 2.14 1.302.86 1.705.19 3.194-1.27.837-.53 3.999 1.8 4.061-.31 2.605-.84.062-2.39-2.109-2.41 1.055-1.27 1.891-3.1-3.845-2.21-4.495-.43-2.201 1.86-3.318 1.09-.31.8.744.16 1.117-.53 1.085 2.08 2.232 2.88-.217 1.05-.899-2.48-4.341-7.87-4.805-1.15.186-1.86 1.395.65 3.131 1.06 2.294-.9 1.799-3.32 1.085-.77-1.922.65-.403-.5-4.651-3.04-1.953 1.06 2.666-.75 4.775-1.95 2.387-.9 3.348.68 3.225-.49 3.007-1.15.744-1.18-.155-2.7-1.736-2.45-2.884-.46-2.914-.71-.279-.72 1.147-.03 3.101 4.25 3.875-1.37 3.41-1.76 2.76-1.68 4.867-.49 3.348-.72.62zm40.8-150.799l-3.03-1.674-.87-3.286.18-.93-3.84-7.224-4.81-4.278 4.1-5.395 2.88-1.24 6.67 8.898 1.24.899 2.57.682.28 1.271 1.58 8.65-.12 1.178-.93.868-4.25.775-1.65.806zm-141.59-6.045l-1.17-.868-.44-2.263.62-.466v-3.038l-1.92-2.511.09-2.387.59-7.038 2.64-1.953.4-1.147-.34-2.512 1.42-.403 3.01 1.829 1.4 2.016.46 7.099.81 4.558-.31 2.387-1.02 2.294-6.24 4.403zm148.66 16.121l-.09-2.139-.59-.868-7.81.992-3.01-1.302.06-1.705 2.24-1.829 2.29-.124 2.36.713 4.71-2.387 4.59 5.456-.07.465-2.32.899-2.36 1.829zm-34.88 135.887l-2.13-.992-2.14.465-1.77-3.689 5.95-7.348 2.17 5.673-1.49 5.395-.59.496zm389.65 579.978l-1.49-.16-.03-4.77 1.92-8.62.66-1.55 1.67-.99-.5 5.79-1.92 6.45-.31 3.85zm-387.66-591.542l-2.33-4.868 2.17-3.782 1.34 2.046 1.21 5.612-.1.527-2.29.465zm21.98-23.377l.16-6.076 1.95-1.488 1.73.155 1.52 2.976-.15.465-2.36.031-2.85 3.937zm-105.19-90.963l-.59-.434-.16-2.139 2.02-2.387 3.04 3.472-4.31 1.488z" fill="#4ABBC7" stroke="#D1DDE8" stroke-width=".5"/><path d="M1025.5 440l1.61-5.555a27.01 27.01 0 00-4.85-24.375l-.38-.472c-4.41-5.512-7.4-12.77-5.16-19.463.09-.279.19-.496.28-.635.8-1.2.33-12.833 0-18.5v-8.832c0-4.572-1.9-8.937-5.25-12.052v0a16.458 16.458 0 00-19.963-1.9l-20.685 12.966a27.082 27.082 0 00-3.928 2.996l-7.617 6.999a18.865 18.865 0 01-20.326 3.393v0a18.86 18.86 0 01-7.748-6.261l-.117-.162A19.6 19.6 0 00915.461 360h-.503a20.58 20.58 0 01-17.075-9.093l-11.066-16.449a26.968 26.968 0 00-2.954-3.658l-4.772-4.956a27.005 27.005 0 00-16.015-8.052L853 316.5h-12.983c-2.99 0-5.96-.497-8.788-1.47l-21.483-7.396a26.997 26.997 0 01-8.588-4.865l-12.6-10.595a26.993 26.993 0 00-12.711-5.929l-17-2.982a26.996 26.996 0 00-8.71-.102l-23.265 3.525a26.995 26.995 0 00-10.011 3.643l-11.277 6.876a27 27 0 01-9.888 3.624l-8.624 1.347a26.941 26.941 0 01-4.169.324h-37.242c-3.733 0-7.426.774-10.845 2.274l-21.347 9.362a26.944 26.944 0 01-4.05 1.405l-18.825 4.895a26.988 26.988 0 00-7.666 3.329l-14.817 9.396a26.702 26.702 0 01-4.432 2.265c-7.931 3.157-20.455 8.074-21.179 8.074h-33.125c-2.902 0-5.779-.468-8.532-1.386l-2.237-.745a26.992 26.992 0 00-11.48-1.225l-21.906 2.4a27.008 27.008 0 01-16.337-3.396L435.5 331.5l-10.315-4.854c-7.775-3.659-25.371 5.511-17.685 9.354v0c.8.4 3.333 15.833 4.5 23.5v0c2.515 13.694-6.214 26.935-19.79 30.021l-2.667.605a27.004 27.004 0 00-10.883 5.246l-8.486 6.788a26.893 26.893 0 01-3.539 2.398l-10.776 6.117A25.522 25.522 0 01343.264 414h-2.926a19.431 19.431 0 00-15.172 7.292v0a19.43 19.43 0 01-16.028 7.273l-17.112-.755a27 27 0 01-13.008-4.008l-17.525-10.833a24.124 24.124 0 01-6.769-6.255l-3.2-4.363c-5.877-8.014-4.373-19.241 3.408-25.425v0a18.5 18.5 0 006.737-11.442l1.307-7.843c.348-2.087.45-4.207.302-6.318l-1.124-16.119a27.13 27.13 0 00-.664-4.354L255 303.5" stroke="#FFD897" stroke-width="5"/><circle cx="1025" cy="440" r="10" fill="#fff"/><path d="M1047.29 446l7.97-18.36h.19l7.97 18.36h-4.04l-5.08-12.912 2.52-1.728-6.1 14.64h-3.43zm5.45-6.384h5.3l1.22 2.928h-7.6l1.08-2.928zm16.62 6.672c-.98 0-1.85-.224-2.62-.672-.76-.464-1.37-1.128-1.82-1.992-.43-.864-.65-1.888-.65-3.072 0-1.184.24-2.192.72-3.024a4.793 4.793 0 011.97-1.896c.83-.432 1.78-.648 2.83-.648.67 0 1.31.104 1.92.312.63.208 1.15.528 1.56.96v1.056-10.248h3.34V446h-3.36v-2.04l.26.72c-.54.448-1.15.832-1.82 1.152-.67.304-1.45.456-2.33.456zm1.1-2.832c.45 0 .84-.056 1.18-.168.35-.128.66-.304.91-.528.27-.24.51-.536.7-.888v-2.568a2.176 2.176 0 00-.6-.888 2.467 2.467 0 00-.96-.576 3.365 3.365 0 00-1.23-.216c-.49 0-.96.128-1.39.384-.41.24-.75.576-1.01 1.008a2.92 2.92 0 00-.38 1.488c0 .56.13 1.064.38 1.512.26.448.6.8 1.01 1.056.43.256.9.384 1.39.384zm14.76 2.832c-1.28 0-2.36-.24-3.26-.72a4.981 4.981 0 01-2.02-1.992c-.46-.848-.69-1.824-.69-2.928 0-1.056.27-2.008.81-2.856a5.968 5.968 0 012.19-2.016c.91-.512 1.93-.768 3.05-.768 1.5 0 2.73.44 3.69 1.32.98.864 1.61 2.12 1.9 3.768l-8.16 2.592-.75-1.824 5.91-1.992-.7.312a2.435 2.435 0 00-.69-1.08c-.32-.32-.81-.48-1.47-.48-.49 0-.93.12-1.32.36-.37.224-.65.552-.86.984-.19.416-.29.912-.29 1.488 0 .656.12 1.208.36 1.656.24.432.57.76.98.984.42.224.88.336 1.4.336.36 0 .72-.064 1.05-.192.35-.128.7-.296 1.03-.504l1.49 2.496c-.56.32-1.17.576-1.82.768-.64.192-1.25.288-1.83.288zm8.11-19.224h3.36V446h-3.36v-18.936zm11.24 19.224c-.98 0-1.87-.192-2.67-.576-.78-.4-1.41-1.008-1.87-1.824-.46-.816-.7-1.856-.7-3.12 0-1.184.24-2.208.72-3.072.48-.864 1.12-1.528 1.9-1.992.78-.48 1.62-.72 2.5-.72 1.04 0 1.82.176 2.35.528.54.336.99.712 1.34 1.128l-.14.408.31-1.536h3.12V446h-3.36v-2.28l.26.72c-.03 0-.12.096-.28.288-.16.176-.4.392-.72.648-.31.24-.69.448-1.16.624-.44.192-.98.288-1.6.288zm.96-2.736c.4 0 .76-.056 1.08-.168.32-.128.6-.304.84-.528.24-.24.44-.536.62-.888V439.4a2.236 2.236 0 00-.58-.888 2.422 2.422 0 00-.91-.576 3.048 3.048 0 00-1.17-.216c-.48 0-.93.128-1.35.384-.4.24-.72.576-.96 1.008-.24.432-.36.928-.36 1.488 0 .56.13 1.064.39 1.512.25.448.59.8 1 1.056.44.256.9.384 1.4.384zm9.36-8.04h3.36V446h-3.36v-10.488zm-.07-3.72c0-.496.19-.904.58-1.224.4-.32.82-.48 1.27-.48.45 0 .85.16 1.22.48.39.32.58.728.58 1.224s-.19.904-.58 1.224c-.37.304-.77.456-1.22.456-.45 0-.87-.152-1.27-.456a1.51 1.51 0 01-.58-1.224zm11.16 14.496c-.97 0-1.84-.224-2.61-.672-.77-.464-1.38-1.128-1.83-1.992-.43-.864-.64-1.888-.64-3.072 0-1.184.24-2.192.72-3.024a4.769 4.769 0 011.96-1.896c.84-.432 1.78-.648 2.84-.648.67 0 1.31.104 1.92.312.62.208 1.14.528 1.56.96v1.056-10.248h3.33V446h-3.36v-2.04l.27.72a9.08 9.08 0 01-1.83 1.152c-.67.304-1.45.456-2.33.456zm1.11-2.832c.45 0 .84-.056 1.17-.168.36-.128.66-.304.92-.528.27-.24.5-.536.69-.888v-2.568a2.176 2.176 0 00-.6-.888 2.33 2.33 0 00-.96-.576 3.311 3.311 0 00-1.22-.216c-.5 0-.96.128-1.39.384a2.7 2.7 0 00-1.01 1.008c-.26.432-.39.928-.39 1.488 0 .56.13 1.064.39 1.512.25.448.59.8 1.01 1.056.43.256.89.384 1.39.384zm14.76 2.832c-1.28 0-2.37-.24-3.27-.72a4.896 4.896 0 01-2.01-1.992c-.47-.848-.7-1.824-.7-2.928 0-1.056.27-2.008.82-2.856a5.862 5.862 0 012.18-2.016c.91-.512 1.93-.768 3.05-.768 1.5 0 2.74.44 3.7 1.32.97.864 1.6 2.12 1.89 3.768l-8.16 2.592-.74-1.824 5.9-1.992-.69.312a2.372 2.372 0 00-.7-1.08c-.32-.32-.81-.48-1.46-.48-.5 0-.94.12-1.32.36-.37.224-.66.552-.87.984-.19.416-.29.912-.29 1.488 0 .656.12 1.208.36 1.656.24.432.57.76.99.984.41.224.88.336 1.39.336.37 0 .72-.064 1.06-.192a5.76 5.76 0 001.03-.504l1.49 2.496c-.56.32-1.17.576-1.83.768-.64.192-1.25.288-1.82.288z" fill="#fff"/><circle cx="1002" cy="342" r="10" fill="#fff"/><path d="M1031.63 330.336c1.46 0 2.69.248 3.7.744 1.01.48 1.77 1.168 2.3 2.064.53.88.79 1.928.79 3.144 0 .72-.11 1.448-.33 2.184-.21.72-.55 1.376-1.03 1.968-.47.592-1.1 1.072-1.9 1.44-.78.352-1.75.528-2.9.528h-2.5V348h-3.48v-17.664h5.35zm.6 8.688c.53 0 .97-.088 1.32-.264.35-.192.63-.424.82-.696.21-.288.35-.584.43-.888.1-.304.14-.568.14-.792 0-.176-.03-.408-.09-.696a2.612 2.612 0 00-.34-.912c-.17-.304-.45-.56-.81-.768-.36-.208-.84-.312-1.44-.312h-2.5v5.328h2.47zm7.94 3.6c0-1.072.25-2.032.74-2.88a5.425 5.425 0 012.14-1.992c.91-.496 1.96-.744 3.14-.744 1.2 0 2.24.248 3.12.744.88.48 1.56 1.144 2.02 1.992.48.848.72 1.808.72 2.88 0 1.072-.24 2.04-.72 2.904-.46.848-1.14 1.52-2.02 2.016-.88.496-1.93.744-3.16.744-1.16 0-2.19-.224-3.1-.672a5.018 5.018 0 01-2.11-1.944c-.51-.848-.77-1.864-.77-3.048zm3.38.024c0 .544.12 1.04.34 1.488.22.432.53.776.91 1.032.39.256.82.384 1.3.384.53 0 .98-.128 1.37-.384.38-.256.68-.6.88-1.032.21-.448.32-.944.32-1.488 0-.56-.11-1.056-.32-1.488-.2-.432-.5-.776-.88-1.032-.39-.256-.84-.384-1.37-.384-.48 0-.91.128-1.3.384-.38.256-.69.6-.91 1.032-.22.432-.34.928-.34 1.488zm14.17-5.136l.31 2.88-.07-.432c.3-.624.72-1.152 1.25-1.584a7.19 7.19 0 011.56-1.032c.53-.24.93-.36 1.2-.36l-.17 3.36c-.78-.096-1.46.032-2.02.384s-.99.816-1.29 1.392a3.698 3.698 0 00-.46 1.776V348h-3.33v-10.488h3.02zm7.8-4.608h3.36v4.56h2.55v2.616h-2.55V348h-3.36v-7.92h-1.63v-2.616h1.63v-4.56zM1080.35 348l7.97-18.36h.19l7.97 18.36h-4.03l-5.09-12.912 2.52-1.728-6.1 14.64h-3.43zm5.45-6.384h5.3l1.23 2.928h-7.61l1.08-2.928zm16.09 6.888c-.95 0-1.74-.288-2.38-.864-.64-.592-.98-1.352-1.01-2.28v-7.848h3.36v6.6c.03.464.15.84.36 1.128.21.272.56.408 1.06.408.49 0 .92-.168 1.27-.504.37-.336.65-.792.84-1.368.21-.592.31-1.256.31-1.992v-4.272h3.36V348h-3.05l-.26-1.92.05.216c-.24.432-.55.816-.91 1.152-.37.336-.81.592-1.32.768-.5.192-1.06.288-1.68.288zm16.05 4.776c-.94 0-1.74-.112-2.4-.336a6.496 6.496 0 01-1.63-.816c-.45-.32-.85-.624-1.2-.912l1.97-2.304c.37.336.79.656 1.27.96.5.32 1.14.48 1.94.48.53 0 1.02-.096 1.47-.288.46-.176.83-.44 1.1-.792.29-.352.43-.792.43-1.32v-2.304l.12.6c-.25.544-.72 1.024-1.39 1.44-.67.4-1.55.6-2.64.6-.94 0-1.82-.24-2.64-.72a5.59 5.59 0 01-1.92-1.992c-.48-.848-.72-1.808-.72-2.88 0-1.104.26-2.08.77-2.928a5.826 5.826 0 011.99-2.04c.82-.496 1.68-.744 2.59-.744.92 0 1.7.136 2.36.408.67.256 1.17.576 1.51.96l-.12.312.36-1.152h3.09V348c0 1.024-.28 1.928-.86 2.712-.58.8-1.34 1.424-2.3 1.872-.95.464-2 .696-3.15.696zm-2.85-10.68c0 .56.12 1.064.38 1.512.26.448.6.8 1.03 1.056.45.256.95.384 1.49.384.46 0 .87-.056 1.22-.168.37-.128.69-.304.96-.528.29-.24.53-.536.72-.888V341.4a2.264 2.264 0 00-.64-.888 2.922 2.922 0 00-1.01-.576 3.436 3.436 0 00-1.25-.216c-.54 0-1.04.128-1.49.384-.43.24-.77.576-1.03 1.008-.26.432-.38.928-.38 1.488zm16 5.904c-.95 0-1.74-.288-2.38-.864-.64-.592-.97-1.352-1.01-2.28v-7.848h3.36v6.6c.04.464.16.84.36 1.128.21.272.56.408 1.06.408s.92-.168 1.27-.504c.37-.336.65-.792.84-1.368.21-.592.31-1.256.31-1.992v-4.272h3.36V348h-3.04l-.27-1.92.05.216c-.24.432-.54.816-.91 1.152-.37.336-.81.592-1.32.768-.5.192-1.06.288-1.68.288zm14.04-.288c-.87 0-1.67-.152-2.43-.456a5.351 5.351 0 01-1.87-1.272l1.39-1.848c.52.464.99.8 1.42 1.008.45.192.85.288 1.2.288.27 0 .51-.024.72-.072.22-.064.4-.152.53-.264a.642.642 0 00.19-.48.746.746 0 00-.34-.648c-.2-.16-.48-.288-.81-.384-.34-.112-.7-.224-1.08-.336-.96-.304-1.66-.744-2.09-1.32a3.242 3.242 0 01-.62-1.92c0-.528.13-1.056.4-1.584.29-.544.74-.992 1.35-1.344.62-.368 1.42-.552 2.4-.552.88 0 1.62.088 2.23.264.61.176 1.18.464 1.73.864l-1.27 1.968c-.31-.24-.65-.44-1.04-.6a2.679 2.679 0 00-1.03-.288c-.29-.016-.53.016-.74.096-.19.08-.35.184-.46.312a.624.624 0 00-.17.408c-.01.304.1.544.34.72.26.176.58.312.96.408.38.096.76.208 1.13.336.51.16.95.376 1.32.648.37.272.65.6.84.984.21.368.31.816.31 1.344 0 .64-.17 1.248-.5 1.824-.32.56-.82 1.016-1.49 1.368-.66.352-1.5.528-2.52.528zm8.31-15.312h3.36v4.56h2.54v2.616h-2.54V348h-3.36v-7.92h-1.63v-2.616h1.63v-4.56zm12.88 15.384c-.98 0-1.87-.192-2.67-.576-.78-.4-1.41-1.008-1.87-1.824-.46-.816-.7-1.856-.7-3.12 0-1.184.24-2.208.72-3.072.48-.864 1.12-1.528 1.9-1.992.78-.48 1.62-.72 2.5-.72 1.04 0 1.82.176 2.35.528.54.336.99.712 1.34 1.128l-.14.408.31-1.536h3.12V348h-3.36v-2.28l.26.72c-.03 0-.12.096-.28.288-.16.176-.4.392-.72.648-.31.24-.69.448-1.16.624-.44.192-.98.288-1.6.288zm.96-2.736c.4 0 .76-.056 1.08-.168.32-.128.6-.304.84-.528.24-.24.44-.536.62-.888V341.4a2.236 2.236 0 00-.58-.888 2.422 2.422 0 00-.91-.576 3.048 3.048 0 00-1.17-.216c-.48 0-.93.128-1.35.384-.4.24-.72.576-.96 1.008-.24.432-.36.928-.36 1.488 0 .56.13 1.064.39 1.512.25.448.59.8 1 1.056.44.256.9.384 1.4.384z" fill="#fff"/><circle cx="885" cy="332" r="10" fill="#fff"/><path d="M792.768 350.456h4.08l3.768 11.088-.552-.24 3.288-8.184 1.608 4.776-5.088 10.92-7.104-18.36zm8.856 0h3.456l4.344 10.728-.624-.096 3.24-10.632h3.744l-6.816 18.312-7.344-18.312zm18.855 18.048c-.944 0-1.736-.288-2.376-.864-.64-.592-.976-1.352-1.008-2.28v-7.848h3.36v6.6c.032.464.152.84.36 1.128.208.272.56.408 1.056.408s.92-.168 1.272-.504c.368-.336.648-.792.84-1.368.208-.592.312-1.256.312-1.992v-4.272h3.36V368h-3.048l-.264-1.92.048.216a4.53 4.53 0 01-.912 1.152 3.727 3.727 0 01-1.32.768c-.496.192-1.056.288-1.68.288zm14.904-.216c-.976 0-1.848-.224-2.616-.672-.768-.464-1.376-1.128-1.824-1.992-.432-.864-.648-1.888-.648-3.072 0-1.184.24-2.192.72-3.024a4.776 4.776 0 011.968-1.896c.832-.432 1.776-.648 2.832-.648a5.89 5.89 0 011.92.312 3.785 3.785 0 011.56.96v1.056-10.248h3.336V368h-3.36v-2.04l.264.72a8.817 8.817 0 01-1.824 1.152c-.672.304-1.448.456-2.328.456zm1.104-2.832c.448 0 .84-.056 1.176-.168.352-.128.656-.304.912-.528.272-.24.504-.536.696-.888v-2.568a2.137 2.137 0 00-.6-.888 2.41 2.41 0 00-.96-.576 3.333 3.333 0 00-1.224-.216c-.496 0-.96.128-1.392.384-.416.24-.752.576-1.008 1.008-.256.432-.384.928-.384 1.488 0 .56.128 1.064.384 1.512.256.448.592.8 1.008 1.056.432.256.896.384 1.392.384zm9.6-7.944h3.36V368h-3.36v-10.488zm-.072-3.72c0-.496.192-.904.576-1.224.4-.32.824-.48 1.272-.48.448 0 .856.16 1.224.48.384.32.576.728.576 1.224s-.192.904-.576 1.224a1.876 1.876 0 01-1.224.456c-.448 0-.872-.152-1.272-.456a1.523 1.523 0 01-.576-1.224zm9.941 3.72l.264 1.872-.048-.168a4.232 4.232 0 011.56-1.584c.672-.416 1.496-.624 2.472-.624.992 0 1.816.296 2.472.888.672.576 1.016 1.328 1.032 2.256V368h-3.36v-6.6c-.016-.464-.144-.832-.384-1.104-.224-.288-.608-.432-1.152-.432-.512 0-.96.168-1.344.504-.384.336-.68.792-.888 1.368-.208.576-.312 1.24-.312 1.992V368h-3.36v-10.488h3.048zm14.25 0l.264 1.872-.048-.168a4.232 4.232 0 011.56-1.584c.672-.416 1.496-.624 2.472-.624.992 0 1.816.296 2.472.888.672.576 1.016 1.328 1.032 2.256V368h-3.36v-6.6c-.016-.464-.144-.832-.384-1.104-.224-.288-.608-.432-1.152-.432-.512 0-.96.168-1.344.504-.384.336-.68.792-.888 1.368-.208.576-.312 1.24-.312 1.992V368h-3.36v-10.488h3.048zm15.618 10.776c-.976 0-1.864-.192-2.664-.576-.784-.4-1.408-1.008-1.872-1.824-.464-.816-.696-1.856-.696-3.12 0-1.184.24-2.208.72-3.072.48-.864 1.112-1.528 1.896-1.992a4.702 4.702 0 012.496-.72c1.04 0 1.824.176 2.352.528.544.336.992.712 1.344 1.128l-.144.408.312-1.536h3.12V368h-3.36v-2.28l.264.72c-.032 0-.128.096-.288.288-.16.176-.4.392-.72.648-.304.24-.688.448-1.152.624-.448.192-.984.288-1.608.288zm.96-2.736c.4 0 .76-.056 1.08-.168.32-.128.6-.304.84-.528.24-.24.448-.536.624-.888V361.4a2.25 2.25 0 00-.576-.888 2.462 2.462 0 00-.912-.576 3.08 3.08 0 00-1.176-.216c-.48 0-.928.128-1.344.384-.4.24-.72.576-.96 1.008-.24.432-.36.928-.36 1.488 0 .56.128 1.064.384 1.512.256.448.592.8 1.008 1.056.432.256.896.384 1.392.384zM655.096 245.72l-13.392-12.096 1.032.576.072 10.8h-3.528v-18.36h.144l13.104 12.048-.768-.336-.072-11.016h3.504v18.384h-.096zm7.477-.216c-.944 0-1.736-.288-2.376-.864-.64-.592-.976-1.352-1.008-2.28v-7.848h3.36v6.6c.032.464.152.84.36 1.128.208.272.56.408 1.056.408s.92-.168 1.272-.504c.368-.336.648-.792.84-1.368.208-.592.312-1.256.312-1.992v-4.272h3.36V245h-3.048l-.264-1.92.048.216a4.53 4.53 0 01-.912 1.152 3.727 3.727 0 01-1.32.768c-.496.192-1.056.288-1.68.288zm10.632-19.44h3.36V245h-3.36v-18.936zm6.82 0h3.36V245h-3.36v-18.936zm11.236 19.224c-.976 0-1.864-.192-2.664-.576-.784-.4-1.408-1.008-1.872-1.824-.464-.816-.696-1.856-.696-3.12 0-1.184.24-2.208.72-3.072.48-.864 1.112-1.528 1.896-1.992a4.702 4.702 0 012.496-.72c1.04 0 1.824.176 2.352.528.544.336.992.712 1.344 1.128l-.144.408.312-1.536h3.12V245h-3.36v-2.28l.264.72c-.032 0-.128.096-.288.288-.16.176-.4.392-.72.648-.304.24-.688.448-1.152.624-.448.192-.984.288-1.608.288zm.96-2.736c.4 0 .76-.056 1.08-.168.32-.128.6-.304.84-.528.24-.24.448-.536.624-.888V238.4a2.25 2.25 0 00-.576-.888 2.462 2.462 0 00-.912-.576 3.08 3.08 0 00-1.176-.216c-.48 0-.928.128-1.344.384-.4.24-.72.576-.96 1.008-.24.432-.36.928-.36 1.488 0 .56.128 1.064.384 1.512.256.448.592.8 1.008 1.056.432.256.896.384 1.392.384zm12.39-8.04l.312 2.88-.072-.432a4.654 4.654 0 011.248-1.584 7.095 7.095 0 011.56-1.032c.528-.24.928-.36 1.2-.36l-.168 3.36c-.784-.096-1.456.032-2.016.384a3.61 3.61 0 00-1.296 1.392 3.761 3.761 0 00-.456 1.776V245h-3.336v-10.488h3.024zm13.708 10.776c-.88 0-1.624-.144-2.232-.432a5.641 5.641 0 01-1.56-1.176l.264-.72V245h-3.36v-18.936h3.336v10.248-1.08c.416-.352.968-.648 1.656-.888s1.472-.36 2.352-.36c.912 0 1.744.216 2.496.648.752.432 1.352 1.064 1.8 1.896.464.816.696 1.816.696 3s-.256 2.208-.768 3.072a5.18 5.18 0 01-1.992 1.992 5.43 5.43 0 01-2.688.696zm-.744-2.832a2.56 2.56 0 001.368-.384 2.843 2.843 0 001.032-1.056c.256-.448.384-.952.384-1.512s-.128-1.056-.384-1.488a2.713 2.713 0 00-1.032-1.008 2.56 2.56 0 00-1.368-.384c-.432 0-.84.072-1.224.216-.368.128-.688.32-.96.576a2.49 2.49 0 00-.6.888v2.568c.192.352.416.648.672.888.272.224.584.4.936.528.352.112.744.168 1.176.168zm8.017-2.832c0-1.072.248-2.032.744-2.88a5.348 5.348 0 012.136-1.992c.912-.496 1.96-.744 3.144-.744 1.2 0 2.24.248 3.12.744a4.935 4.935 0 012.016 1.992c.48.848.72 1.808.72 2.88 0 1.072-.24 2.04-.72 2.904-.464.848-1.136 1.52-2.016 2.016-.88.496-1.936.744-3.168.744-1.152 0-2.184-.224-3.096-.672a5.058 5.058 0 01-2.112-1.944c-.512-.848-.768-1.864-.768-3.048zm3.384.024c0 .544.112 1.04.336 1.488.224.432.528.776.912 1.032s.816.384 1.296.384c.528 0 .984-.128 1.368-.384.384-.256.68-.6.888-1.032a3.49 3.49 0 00.312-1.488c0-.56-.104-1.056-.312-1.488a2.536 2.536 0 00-.888-1.032c-.384-.256-.84-.384-1.368-.384-.48 0-.912.128-1.296.384s-.688.6-.912 1.032c-.224.432-.336.928-.336 1.488zm14.167-5.136l.312 2.88-.072-.432a4.654 4.654 0 011.248-1.584 7.095 7.095 0 011.56-1.032c.528-.24.928-.36 1.2-.36l-.168 3.36c-.784-.096-1.456.032-2.016.384a3.61 3.61 0 00-1.296 1.392 3.761 3.761 0 00-.456 1.776V245h-3.336v-10.488h3.024zm17.648 0l.312 2.88-.072-.432a4.654 4.654 0 011.248-1.584 7.095 7.095 0 011.56-1.032c.528-.24.928-.36 1.2-.36l-.168 3.36c-.784-.096-1.456.032-2.016.384a3.61 3.61 0 00-1.296 1.392 3.761 3.761 0 00-.456 1.776V245h-3.336v-10.488h3.024zm5.535 5.112c0-1.072.248-2.032.744-2.88a5.348 5.348 0 012.136-1.992c.912-.496 1.96-.744 3.144-.744 1.2 0 2.24.248 3.12.744a4.935 4.935 0 012.016 1.992c.48.848.72 1.808.72 2.88 0 1.072-.24 2.04-.72 2.904-.464.848-1.136 1.52-2.016 2.016-.88.496-1.936.744-3.168.744-1.152 0-2.184-.224-3.096-.672a5.058 5.058 0 01-2.112-1.944c-.512-.848-.768-1.864-.768-3.048zm3.384.024c0 .544.112 1.04.336 1.488.224.432.528.776.912 1.032s.816.384 1.296.384c.528 0 .984-.128 1.368-.384.384-.256.68-.6.888-1.032a3.49 3.49 0 00.312-1.488c0-.56-.104-1.056-.312-1.488a2.536 2.536 0 00-.888-1.032c-.384-.256-.84-.384-1.368-.384-.48 0-.912.128-1.296.384s-.688.6-.912 1.032c-.224.432-.336.928-.336 1.488zm15.559 5.64c-.976 0-1.864-.192-2.664-.576-.784-.4-1.408-1.008-1.872-1.824-.464-.816-.696-1.856-.696-3.12 0-1.184.24-2.208.72-3.072.48-.864 1.112-1.528 1.896-1.992a4.702 4.702 0 012.496-.72c1.04 0 1.824.176 2.352.528.544.336.992.712 1.344 1.128l-.144.408.312-1.536h3.12V245h-3.36v-2.28l.264.72c-.032 0-.128.096-.288.288-.16.176-.4.392-.72.648-.304.24-.688.448-1.152.624-.448.192-.984.288-1.608.288zm.96-2.736c.4 0 .76-.056 1.08-.168.32-.128.6-.304.84-.528.24-.24.448-.536.624-.888V238.4a2.25 2.25 0 00-.576-.888 2.462 2.462 0 00-.912-.576 3.08 3.08 0 00-1.176-.216c-.48 0-.928.128-1.344.384-.4.24-.72.576-.96 1.008-.24.432-.36.928-.36 1.488 0 .56.128 1.064.384 1.512.256.448.592.8 1.008 1.056.432.256.896.384 1.392.384zm13.638 2.736c-.976 0-1.848-.224-2.616-.672-.768-.464-1.376-1.128-1.824-1.992-.432-.864-.648-1.888-.648-3.072 0-1.184.24-2.192.72-3.024a4.776 4.776 0 011.968-1.896c.832-.432 1.776-.648 2.832-.648a5.89 5.89 0 011.92.312 3.785 3.785 0 011.56.96v1.056-10.248h3.336V245h-3.36v-2.04l.264.72a8.817 8.817 0 01-1.824 1.152c-.672.304-1.448.456-2.328.456zm1.104-2.832c.448 0 .84-.056 1.176-.168.352-.128.656-.304.912-.528.272-.24.504-.536.696-.888v-2.568a2.137 2.137 0 00-.6-.888 2.41 2.41 0 00-.96-.576 3.333 3.333 0 00-1.224-.216c-.496 0-.96.128-1.392.384-.416.24-.752.576-1.008 1.008-.256.432-.384.928-.384 1.488 0 .56.128 1.064.384 1.512.256.448.592.8 1.008 1.056.432.256.896.384 1.392.384zm9.601 2.544v-18.936h3.288v10.56l-.024-.408a4.232 4.232 0 011.56-1.584c.672-.416 1.496-.624 2.472-.624.992 0 1.816.296 2.472.888.672.576 1.016 1.328 1.032 2.256V245h-3.36v-6.6c-.016-.464-.144-.832-.384-1.104-.224-.288-.608-.432-1.152-.432-.512 0-.96.168-1.344.504-.384.336-.68.792-.888 1.368-.208.576-.312 1.24-.312 1.992V245h-3.36zm13.434-5.376c0-1.072.248-2.032.744-2.88a5.348 5.348 0 012.136-1.992c.912-.496 1.96-.744 3.144-.744 1.2 0 2.24.248 3.12.744a4.935 4.935 0 012.016 1.992c.48.848.72 1.808.72 2.88 0 1.072-.24 2.04-.72 2.904-.464.848-1.136 1.52-2.016 2.016-.88.496-1.936.744-3.168.744-1.152 0-2.184-.224-3.096-.672a5.058 5.058 0 01-2.112-1.944c-.512-.848-.768-1.864-.768-3.048zm3.384.024c0 .544.112 1.04.336 1.488.224.432.528.776.912 1.032s.816.384 1.296.384c.528 0 .984-.128 1.368-.384.384-.256.68-.6.888-1.032a3.49 3.49 0 00.312-1.488c0-.56-.104-1.056-.312-1.488a2.536 2.536 0 00-.888-1.032c-.384-.256-.84-.384-1.368-.384-.48 0-.912.128-1.296.384s-.688.6-.912 1.032c-.224.432-.336.928-.336 1.488zm14.527 5.856c-.944 0-1.736-.288-2.376-.864-.64-.592-.976-1.352-1.008-2.28v-7.848h3.36v6.6c.032.464.152.84.36 1.128.208.272.56.408 1.056.408s.92-.168 1.272-.504c.368-.336.648-.792.84-1.368.208-.592.312-1.256.312-1.992v-4.272h3.36V245h-3.048l-.264-1.92.048.216a4.53 4.53 0 01-.912 1.152 3.727 3.727 0 01-1.32.768c-.496.192-1.056.288-1.68.288zm14.039-.288a6.406 6.406 0 01-2.424-.456 5.323 5.323 0 01-1.872-1.272l1.392-1.848c.512.464.984.8 1.416 1.008.448.192.848.288 1.2.288.272 0 .512-.024.72-.072.224-.064.4-.152.528-.264a.651.651 0 00.192-.48.756.756 0 00-.336-.648 2.42 2.42 0 00-.816-.384 29.88 29.88 0 00-1.08-.336c-.96-.304-1.656-.744-2.088-1.32a3.274 3.274 0 01-.624-1.92c0-.528.136-1.056.408-1.584.288-.544.736-.992 1.344-1.344.624-.368 1.424-.552 2.4-.552.88 0 1.624.088 2.232.264a5.475 5.475 0 011.728.864l-1.272 1.968a4.362 4.362 0 00-1.032-.6c-.368-.176-.712-.272-1.032-.288a1.79 1.79 0 00-.744.096c-.192.08-.344.184-.456.312a.611.611 0 00-.168.408.79.79 0 00.336.72c.256.176.576.312.96.408.384.096.76.208 1.128.336.512.16.952.376 1.32.648.368.272.648.6.84.984.208.368.312.816.312 1.344 0 .64-.168 1.248-.504 1.824-.32.56-.816 1.016-1.488 1.368-.656.352-1.496.528-2.52.528zm12.487.072c-1.28 0-2.368-.24-3.264-.72a4.935 4.935 0 01-2.016-1.992c-.464-.848-.696-1.824-.696-2.928 0-1.056.272-2.008.816-2.856a5.889 5.889 0 012.184-2.016c.912-.512 1.928-.768 3.048-.768 1.504 0 2.736.44 3.696 1.32.976.864 1.608 2.12 1.896 3.768l-8.16 2.592-.744-1.824 5.904-1.992-.696.312a2.38 2.38 0 00-.696-1.08c-.32-.32-.808-.48-1.464-.48-.496 0-.936.12-1.32.36a2.266 2.266 0 00-.864.984c-.192.416-.288.912-.288 1.488 0 .656.12 1.208.36 1.656.24.432.568.76.984.984.416.224.88.336 1.392.336.368 0 .72-.064 1.056-.192a5.586 5.586 0 001.032-.504l1.488 2.496c-.56.32-1.168.576-1.824.768a6.351 6.351 0 01-1.824.288z" fill="#fff"/><circle cx="756" cy="281" r="10" fill="#fff"/><path d="M314.096 303.72l-13.392-12.096 1.032.576.072 10.8h-3.528v-18.36h.144l13.104 12.048-.768-.336-.072-11.016h3.504v18.384h-.096zm3.277-6.096c0-1.072.248-2.032.744-2.88a5.348 5.348 0 012.136-1.992c.912-.496 1.96-.744 3.144-.744 1.2 0 2.24.248 3.12.744a4.935 4.935 0 012.016 1.992c.48.848.72 1.808.72 2.88 0 1.072-.24 2.04-.72 2.904-.464.848-1.136 1.52-2.016 2.016-.88.496-1.936.744-3.168.744-1.152 0-2.184-.224-3.096-.672a5.058 5.058 0 01-2.112-1.944c-.512-.848-.768-1.864-.768-3.048zm3.384.024c0 .544.112 1.04.336 1.488.224.432.528.776.912 1.032s.816.384 1.296.384c.528 0 .984-.128 1.368-.384.384-.256.68-.6.888-1.032a3.49 3.49 0 00.312-1.488c0-.56-.104-1.056-.312-1.488a2.536 2.536 0 00-.888-1.032c-.384-.256-.84-.384-1.368-.384-.48 0-.912.128-1.296.384s-.688.6-.912 1.032c-.224.432-.336.928-.336 1.488zm14.167-5.136l.312 2.88-.072-.432a4.654 4.654 0 011.248-1.584 7.095 7.095 0 011.56-1.032c.528-.24.928-.36 1.2-.36l-.168 3.36c-.784-.096-1.456.032-2.016.384a3.61 3.61 0 00-1.296 1.392 3.761 3.761 0 00-.456 1.776V303H331.9v-10.488h3.024zm10.228 10.704a6.406 6.406 0 01-2.424-.456 5.323 5.323 0 01-1.872-1.272l1.392-1.848c.512.464.984.8 1.416 1.008.448.192.848.288 1.2.288.272 0 .512-.024.72-.072.224-.064.4-.152.528-.264a.651.651 0 00.192-.48.756.756 0 00-.336-.648 2.42 2.42 0 00-.816-.384 29.88 29.88 0 00-1.08-.336c-.96-.304-1.656-.744-2.088-1.32a3.274 3.274 0 01-.624-1.92c0-.528.136-1.056.408-1.584.288-.544.736-.992 1.344-1.344.624-.368 1.424-.552 2.4-.552.88 0 1.624.088 2.232.264a5.475 5.475 0 011.728.864l-1.272 1.968a4.362 4.362 0 00-1.032-.6c-.368-.176-.712-.272-1.032-.288a1.79 1.79 0 00-.744.096c-.192.08-.344.184-.456.312a.611.611 0 00-.168.408.79.79 0 00.336.72c.256.176.576.312.96.408.384.096.76.208 1.128.336.512.16.952.376 1.32.648.368.272.648.6.84.984.208.368.312.816.312 1.344 0 .64-.168 1.248-.504 1.824-.32.56-.816 1.016-1.488 1.368-.656.352-1.496.528-2.52.528zm12.486.072c-1.28 0-2.368-.24-3.264-.72a4.935 4.935 0 01-2.016-1.992c-.464-.848-.696-1.824-.696-2.928 0-1.056.272-2.008.816-2.856a5.889 5.889 0 012.184-2.016c.912-.512 1.928-.768 3.048-.768 1.504 0 2.736.44 3.696 1.32.976.864 1.608 2.12 1.896 3.768l-8.16 2.592-.744-1.824 5.904-1.992-.696.312a2.38 2.38 0 00-.696-1.08c-.32-.32-.808-.48-1.464-.48-.496 0-.936.12-1.32.36a2.266 2.266 0 00-.864.984c-.192.416-.288.912-.288 1.488 0 .656.12 1.208.36 1.656.24.432.568.76.984.984.416.224.88.336 1.392.336.368 0 .72-.064 1.056-.192a5.586 5.586 0 001.032-.504l1.488 2.496c-.56.32-1.168.576-1.824.768a6.351 6.351 0 01-1.824.288zm11.154-10.776l.264 1.848-.048-.144c.416-.704.936-1.248 1.56-1.632.624-.4 1.376-.6 2.256-.6.576 0 1.08.08 1.512.24.448.16.824.4 1.128.72.304.304.512.704.624 1.2l-.12.024a5.607 5.607 0 011.608-1.584c.64-.4 1.304-.6 1.992-.6 1.04 0 1.864.296 2.472.888.624.576.944 1.328.96 2.256V303h-3.336v-6.48c-.016-.464-.088-.84-.216-1.128-.128-.304-.424-.472-.888-.504-.544 0-1.008.192-1.392.576-.368.368-.648.848-.84 1.44a6.125 6.125 0 00-.264 1.8V303h-3.36v-6.48c-.016-.464-.104-.84-.264-1.128-.144-.304-.448-.472-.912-.504-.528 0-.976.192-1.344.576-.352.368-.624.84-.816 1.416a6.044 6.044 0 00-.264 1.776V303h-3.36v-10.488h3.048zm22.086 10.776c-.976 0-1.864-.192-2.664-.576-.784-.4-1.408-1.008-1.872-1.824-.464-.816-.696-1.856-.696-3.12 0-1.184.24-2.208.72-3.072.48-.864 1.112-1.528 1.896-1.992a4.702 4.702 0 012.496-.72c1.04 0 1.824.176 2.352.528.544.336.992.712 1.344 1.128l-.144.408.312-1.536h3.12V303h-3.36v-2.28l.264.72c-.032 0-.128.096-.288.288-.16.176-.4.392-.72.648-.304.24-.688.448-1.152.624-.448.192-.984.288-1.608.288zm.96-2.736c.4 0 .76-.056 1.08-.168.32-.128.6-.304.84-.528.24-.24.448-.536.624-.888V296.4a2.25 2.25 0 00-.576-.888 2.462 2.462 0 00-.912-.576 3.08 3.08 0 00-1.176-.216c-.48 0-.928.128-1.344.384-.4.24-.72.576-.96 1.008-.24.432-.36.928-.36 1.488 0 .56.128 1.064.384 1.512.256.448.592.8 1.008 1.056.432.256.896.384 1.392.384zm12.415-8.04l.264 1.872-.048-.168a4.232 4.232 0 011.56-1.584c.672-.416 1.496-.624 2.472-.624.992 0 1.816.296 2.472.888.672.576 1.016 1.328 1.032 2.256V303h-3.36v-6.6c-.016-.464-.144-.832-.384-1.104-.224-.288-.608-.432-1.152-.432-.512 0-.96.168-1.344.504-.384.336-.68.792-.888 1.368-.208.576-.312 1.24-.312 1.992V303h-3.36v-10.488h3.048z" fill="#fff"/><circle cx="404" cy="327" r="10" fill="#fff"/><path d="M209.632 262.336c1.456 0 2.688.248 3.696.744 1.008.48 1.776 1.168 2.304 2.064.528.88.792 1.928.792 3.144 0 .72-.112 1.448-.336 2.184a5.537 5.537 0 01-1.032 1.968c-.464.592-1.096 1.072-1.896 1.44-.784.352-1.752.528-2.904.528h-2.496V280h-3.48v-17.664h5.352zm.6 8.688c.528 0 .968-.088 1.32-.264.352-.192.624-.424.816-.696.208-.288.352-.584.432-.888.096-.304.144-.568.144-.792 0-.176-.032-.408-.096-.696a2.641 2.641 0 00-.336-.912c-.176-.304-.448-.56-.816-.768-.352-.208-.832-.312-1.44-.312h-2.496v5.328h2.472zm13.914 9.264c-1.28 0-2.368-.24-3.264-.72a4.935 4.935 0 01-2.016-1.992c-.464-.848-.696-1.824-.696-2.928 0-1.056.272-2.008.816-2.856a5.889 5.889 0 012.184-2.016c.912-.512 1.928-.768 3.048-.768 1.504 0 2.736.44 3.696 1.32.976.864 1.608 2.12 1.896 3.768l-8.16 2.592-.744-1.824 5.904-1.992-.696.312a2.38 2.38 0 00-.696-1.08c-.32-.32-.808-.48-1.464-.48-.496 0-.936.12-1.32.36a2.266 2.266 0 00-.864.984c-.192.416-.288.912-.288 1.488 0 .656.12 1.208.36 1.656.24.432.568.76.984.984.416.224.88.336 1.392.336.368 0 .72-.064 1.056-.192a5.586 5.586 0 001.032-.504l1.488 2.496c-.56.32-1.168.576-1.824.768a6.351 6.351 0 01-1.824.288zm11.129-10.776l.312 2.88-.072-.432a4.654 4.654 0 011.248-1.584 7.095 7.095 0 011.56-1.032c.528-.24.928-.36 1.2-.36l-.168 3.36c-.784-.096-1.456.032-2.016.384a3.61 3.61 0 00-1.296 1.392 3.761 3.761 0 00-.456 1.776V280h-3.336v-10.488h3.024zm7.804-4.608h3.36v4.56h2.544v2.616h-2.544V280h-3.36v-7.92h-1.632v-2.616h1.632v-4.56zM251.541 280v-18.936h3.288v10.56l-.024-.408a4.232 4.232 0 011.56-1.584c.672-.416 1.496-.624 2.472-.624.992 0 1.816.296 2.472.888.672.576 1.016 1.328 1.032 2.256V280h-3.36v-6.6c-.016-.464-.144-.832-.384-1.104-.224-.288-.608-.432-1.152-.432-.512 0-.96.168-1.344.504-.384.336-.68.792-.888 1.368-.208.576-.312 1.24-.312 1.992V280h-3.36z" fill="#fff"/><circle cx="255" cy="304" r="10" fill="#fff"/><path d="M166.464 348.336c1.84 0 3.304.376 4.392 1.128 1.088.736 1.632 1.84 1.632 3.312 0 1.088-.272 2-.816 2.736-.528.72-1.256 1.264-2.184 1.632-.912.352-1.96.528-3.144.528l-.552-1.872c1.456 0 2.744.2 3.864.6 1.136.4 2.032.976 2.688 1.728.656.736.984 1.624.984 2.664 0 .96-.176 1.776-.528 2.448a4.366 4.366 0 01-1.392 1.608 6.13 6.13 0 01-1.968.888 9.77 9.77 0 01-2.28.264h-5.88v-17.664h5.184zm.408 7.224c.688 0 1.192-.208 1.512-.624.336-.416.504-.888.504-1.416 0-.608-.208-1.064-.624-1.368-.4-.304-.944-.456-1.632-.456h-1.872v3.864h2.112zm.12 7.2c.512 0 .976-.064 1.392-.192.416-.144.744-.36.984-.648.24-.304.36-.68.36-1.128 0-.512-.144-.896-.432-1.152-.288-.272-.664-.456-1.128-.552a5.819 5.819 0 00-1.416-.168h-1.992v3.84h2.232zm12.659 3.744c-.944 0-1.736-.288-2.376-.864-.64-.592-.976-1.352-1.008-2.28v-7.848h3.36v6.6c.032.464.152.84.36 1.128.208.272.56.408 1.056.408s.92-.168 1.272-.504c.368-.336.648-.792.84-1.368.208-.592.312-1.256.312-1.992v-4.272h3.36V366h-3.048l-.264-1.92.048.216a4.53 4.53 0 01-.912 1.152 3.727 3.727 0 01-1.32.768c-.496.192-1.056.288-1.68.288zm13.68-10.992l.264 1.872-.048-.168a4.232 4.232 0 011.56-1.584c.672-.416 1.496-.624 2.472-.624.992 0 1.816.296 2.472.888.672.576 1.016 1.328 1.032 2.256V366h-3.36v-6.6c-.016-.464-.144-.832-.384-1.104-.224-.288-.608-.432-1.152-.432-.512 0-.96.168-1.344.504-.384.336-.68.792-.888 1.368-.208.576-.312 1.24-.312 1.992V366h-3.36v-10.488h3.048zm18.09 10.776c-.88 0-1.624-.144-2.232-.432a5.641 5.641 0 01-1.56-1.176l.264-.72V366h-3.36v-18.936h3.336v10.248-1.08c.416-.352.968-.648 1.656-.888s1.472-.36 2.352-.36c.912 0 1.744.216 2.496.648.752.432 1.352 1.064 1.8 1.896.464.816.696 1.816.696 3s-.256 2.208-.768 3.072a5.18 5.18 0 01-1.992 1.992 5.43 5.43 0 01-2.688.696zm-.744-2.832a2.56 2.56 0 001.368-.384 2.843 2.843 0 001.032-1.056c.256-.448.384-.952.384-1.512s-.128-1.056-.384-1.488a2.713 2.713 0 00-1.032-1.008 2.56 2.56 0 00-1.368-.384c-.432 0-.84.072-1.224.216-.368.128-.688.32-.96.576a2.49 2.49 0 00-.6.888v2.568c.192.352.416.648.672.888.272.224.584.4.936.528.352.112.744.168 1.176.168zm12.216 3.048c-.944 0-1.736-.288-2.376-.864-.64-.592-.976-1.352-1.008-2.28v-7.848h3.36v6.6c.032.464.152.84.36 1.128.208.272.56.408 1.056.408s.92-.168 1.272-.504c.368-.336.648-.792.84-1.368.208-.592.312-1.256.312-1.992v-4.272h3.36V366h-3.048l-.264-1.92.048.216a4.53 4.53 0 01-.912 1.152 3.727 3.727 0 01-1.32.768c-.496.192-1.056.288-1.68.288zm13.656-10.992l.312 2.88-.072-.432a4.654 4.654 0 011.248-1.584 7.095 7.095 0 011.56-1.032c.528-.24.928-.36 1.2-.36l-.168 3.36c-.784-.096-1.456.032-2.016.384a3.61 3.61 0 00-1.296 1.392 3.761 3.761 0 00-.456 1.776V366h-3.336v-10.488h3.024zm7.66 15.528l6.984-15.528h3.024l-6.768 15.528h-3.24zm2.808-4.992l-5.136-10.536h3.768l3.96 8.856-2.592 1.68z" fill="#fff"/><circle cx="245" cy="390" r="10" fill="#fff"/><path d="M843.528 289.536c-.192.16-.552.376-1.08.648-.512.272-1.144.512-1.896.72-.752.208-1.584.304-2.496.288-1.392-.032-2.64-.28-3.744-.744a8.463 8.463 0 01-2.784-1.944 8.594 8.594 0 01-1.728-2.808 9.473 9.473 0 01-.6-3.384c0-1.344.2-2.576.6-3.696.416-1.12 1-2.088 1.752-2.904a8.004 8.004 0 012.736-1.896c1.056-.448 2.224-.672 3.504-.672 1.184 0 2.232.16 3.144.48.912.32 1.656.664 2.232 1.032l-1.368 3.288c-.4-.304-.936-.616-1.608-.936-.656-.336-1.416-.504-2.28-.504-.672 0-1.32.144-1.944.432a5.054 5.054 0 00-1.632 1.176 5.859 5.859 0 00-1.104 1.8 5.831 5.831 0 00-.408 2.208c0 .848.12 1.624.36 2.328a5.46 5.46 0 001.08 1.824c.464.496 1.016.88 1.656 1.152.656.272 1.392.408 2.208.408.944 0 1.752-.152 2.424-.456.672-.304 1.184-.624 1.536-.96l1.44 3.12zm8.094 1.752c-1.28 0-2.368-.24-3.264-.72a4.935 4.935 0 01-2.016-1.992c-.464-.848-.696-1.824-.696-2.928 0-1.056.272-2.008.816-2.856a5.889 5.889 0 012.184-2.016c.912-.512 1.928-.768 3.048-.768 1.504 0 2.736.44 3.696 1.32.976.864 1.608 2.12 1.896 3.768l-8.16 2.592-.744-1.824 5.904-1.992-.696.312a2.38 2.38 0 00-.696-1.08c-.32-.32-.808-.48-1.464-.48-.496 0-.936.12-1.32.36a2.266 2.266 0 00-.864.984c-.192.416-.288.912-.288 1.488 0 .656.12 1.208.36 1.656.24.432.568.76.984.984.416.224.88.336 1.392.336.368 0 .72-.064 1.056-.192a5.586 5.586 0 001.032-.504l1.488 2.496c-.56.32-1.168.576-1.824.768a6.351 6.351 0 01-1.824.288zm12.378 0c-.976 0-1.848-.224-2.616-.672-.768-.464-1.376-1.128-1.824-1.992-.432-.864-.648-1.888-.648-3.072 0-1.184.24-2.192.72-3.024a4.776 4.776 0 011.968-1.896c.832-.432 1.776-.648 2.832-.648a5.89 5.89 0 011.92.312 3.785 3.785 0 011.56.96v1.056-10.248h3.336V291h-3.36v-2.04l.264.72a8.817 8.817 0 01-1.824 1.152c-.672.304-1.448.456-2.328.456zm1.104-2.832c.448 0 .84-.056 1.176-.168.352-.128.656-.304.912-.528.272-.24.504-.536.696-.888v-2.568a2.137 2.137 0 00-.6-.888 2.41 2.41 0 00-.96-.576 3.333 3.333 0 00-1.224-.216c-.496 0-.96.128-1.392.384-.416.24-.752.576-1.008 1.008-.256.432-.384.928-.384 1.488 0 .56.128 1.064.384 1.512.256.448.592.8 1.008 1.056.432.256.896.384 1.392.384zm12.985 3.048c-.944 0-1.736-.288-2.376-.864-.64-.592-.976-1.352-1.008-2.28v-7.848h3.36v6.6c.032.464.152.84.36 1.128.208.272.56.408 1.056.408s.92-.168 1.272-.504c.368-.336.648-.792.84-1.368.208-.592.312-1.256.312-1.992v-4.272h3.36V291h-3.048l-.264-1.92.048.216a4.53 4.53 0 01-.912 1.152 3.727 3.727 0 01-1.32.768c-.496.192-1.056.288-1.68.288zm13.679-10.992l.264 1.872-.048-.168a4.232 4.232 0 011.56-1.584c.672-.416 1.496-.624 2.472-.624.992 0 1.816.296 2.472.888.672.576 1.016 1.328 1.032 2.256V291h-3.36v-6.6c-.016-.464-.144-.832-.384-1.104-.224-.288-.608-.432-1.152-.432-.512 0-.96.168-1.344.504-.384.336-.68.792-.888 1.368-.208.576-.312 1.24-.312 1.992V291h-3.36v-10.488h3.048zm15.618 10.776c-.976 0-1.864-.192-2.664-.576-.784-.4-1.408-1.008-1.872-1.824-.464-.816-.696-1.856-.696-3.12 0-1.184.24-2.208.72-3.072.48-.864 1.112-1.528 1.896-1.992a4.702 4.702 0 012.496-.72c1.04 0 1.824.176 2.352.528.544.336.992.712 1.344 1.128l-.144.408.312-1.536h3.12V291h-3.36v-2.28l.264.72c-.032 0-.128.096-.288.288-.16.176-.4.392-.72.648-.304.24-.688.448-1.152.624-.448.192-.984.288-1.608.288zm.96-2.736c.4 0 .76-.056 1.08-.168.32-.128.6-.304.84-.528.24-.24.448-.536.624-.888V284.4a2.25 2.25 0 00-.576-.888 2.462 2.462 0 00-.912-.576 3.08 3.08 0 00-1.176-.216c-.48 0-.928.128-1.344.384-.4.24-.72.576-.96 1.008-.24.432-.36.928-.36 1.488 0 .56.128 1.064.384 1.512.256.448.592.8 1.008 1.056.432.256.896.384 1.392.384z" fill="#fff"/><circle cx="838" cy="315" r="10" fill="#fff"/><circle cx="684" cy="304" r="10" fill="#fff"/><path d="M654.28 322.336h12.048v3.36h-8.568v3.768h7.584v3.36h-7.584v3.816h8.904V340H654.28v-17.664zm18.816 18.168c-.944 0-1.736-.288-2.376-.864-.64-.592-.976-1.352-1.008-2.28v-7.848h3.36v6.6c.032.464.152.84.36 1.128.208.272.56.408 1.056.408s.92-.168 1.272-.504c.368-.336.648-.792.84-1.368.208-.592.312-1.256.312-1.992v-4.272h3.36V340h-3.048l-.264-1.92.048.216a4.53 4.53 0 01-.912 1.152 3.727 3.727 0 01-1.32.768c-.496.192-1.056.288-1.68.288zm19.536-1.44c-.464.368-1.048.664-1.752.888a6.562 6.562 0 01-2.04.336c-1.2 0-2.248-.216-3.144-.648a5.032 5.032 0 01-2.064-1.896c-.48-.832-.72-1.832-.72-3s.264-2.16.792-2.976a5.219 5.219 0 012.064-1.896 5.989 5.989 0 012.712-.648c.944 0 1.76.128 2.448.384.704.256 1.304.592 1.8 1.008l-1.632 2.16c-.224-.176-.536-.352-.936-.528-.384-.192-.84-.288-1.368-.288-.464 0-.888.12-1.272.36s-.688.568-.912.984c-.224.416-.336.896-.336 1.44 0 .512.12.984.36 1.416.24.432.568.776.984 1.032.432.24.936.36 1.512.36.368 0 .704-.048 1.008-.144.32-.112.592-.264.816-.456l1.68 2.112zm2.58-18h3.36V340h-3.36v-18.936zm11.237 19.224c-.976 0-1.864-.192-2.664-.576-.784-.4-1.408-1.008-1.872-1.824-.464-.816-.696-1.856-.696-3.12 0-1.184.24-2.208.72-3.072.48-.864 1.112-1.528 1.896-1.992a4.702 4.702 0 012.496-.72c1.04 0 1.824.176 2.352.528.544.336.992.712 1.344 1.128l-.144.408.312-1.536h3.12V340h-3.36v-2.28l.264.72c-.032 0-.128.096-.288.288-.16.176-.4.392-.72.648-.304.24-.688.448-1.152.624-.448.192-.984.288-1.608.288zm.96-2.736c.4 0 .76-.056 1.08-.168.32-.128.6-.304.84-.528.24-.24.448-.536.624-.888V333.4a2.25 2.25 0 00-.576-.888 2.462 2.462 0 00-.912-.576 3.08 3.08 0 00-1.176-.216c-.48 0-.928.128-1.344.384-.4.24-.72.576-.96 1.008-.24.432-.36.928-.36 1.488 0 .56.128 1.064.384 1.512.256.448.592.8 1.008 1.056.432.256.896.384 1.392.384z" fill="#fff"/><circle cx="491" cy="340" r="10" fill="#fff"/><path d="M436.464 358.336c1.84 0 3.304.376 4.392 1.128 1.088.736 1.632 1.84 1.632 3.312 0 1.088-.272 2-.816 2.736-.528.72-1.256 1.264-2.184 1.632-.912.352-1.96.528-3.144.528l-.552-1.872c1.456 0 2.744.2 3.864.6 1.136.4 2.032.976 2.688 1.728.656.736.984 1.624.984 2.664 0 .96-.176 1.776-.528 2.448a4.366 4.366 0 01-1.392 1.608 6.13 6.13 0 01-1.968.888 9.77 9.77 0 01-2.28.264h-5.88v-17.664h5.184zm.408 7.224c.688 0 1.192-.208 1.512-.624.336-.416.504-.888.504-1.416 0-.608-.208-1.064-.624-1.368-.4-.304-.944-.456-1.632-.456h-1.872v3.864h2.112zm.12 7.2c.512 0 .976-.064 1.392-.192.416-.144.744-.36.984-.648.24-.304.36-.68.36-1.128 0-.512-.144-.896-.432-1.152-.288-.272-.664-.456-1.128-.552a5.819 5.819 0 00-1.416-.168h-1.992v3.84h2.232zm13.691 3.528c-.976 0-1.864-.192-2.664-.576-.784-.4-1.408-1.008-1.872-1.824-.464-.816-.696-1.856-.696-3.12 0-1.184.24-2.208.72-3.072.48-.864 1.112-1.528 1.896-1.992a4.702 4.702 0 012.496-.72c1.04 0 1.824.176 2.352.528.544.336.992.712 1.344 1.128l-.144.408.312-1.536h3.12V376h-3.36v-2.28l.264.72c-.032 0-.128.096-.288.288-.16.176-.4.392-.72.648-.304.24-.688.448-1.152.624-.448.192-.984.288-1.608.288zm.96-2.736c.4 0 .76-.056 1.08-.168.32-.128.6-.304.84-.528.24-.24.448-.536.624-.888V369.4a2.25 2.25 0 00-.576-.888 2.462 2.462 0 00-.912-.576 3.08 3.08 0 00-1.176-.216c-.48 0-.928.128-1.344.384-.4.24-.72.576-.96 1.008-.24.432-.36.928-.36 1.488 0 .56.128 1.064.384 1.512.256.448.592.8 1.008 1.056.432.256.896.384 1.392.384zm9.366-16.488h3.36V376h-3.36v-18.936zm6.821 0h3.36V376h-3.36v-18.936zm11.236 19.224c-.976 0-1.864-.192-2.664-.576-.784-.4-1.408-1.008-1.872-1.824-.464-.816-.696-1.856-.696-3.12 0-1.184.24-2.208.72-3.072.48-.864 1.112-1.528 1.896-1.992a4.702 4.702 0 012.496-.72c1.04 0 1.824.176 2.352.528.544.336.992.712 1.344 1.128l-.144.408.312-1.536h3.12V376h-3.36v-2.28l.264.72c-.032 0-.128.096-.288.288-.16.176-.4.392-.72.648-.304.24-.688.448-1.152.624-.448.192-.984.288-1.608.288zm.96-2.736c.4 0 .76-.056 1.08-.168.32-.128.6-.304.84-.528.24-.24.448-.536.624-.888V369.4a2.25 2.25 0 00-.576-.888 2.462 2.462 0 00-.912-.576 3.08 3.08 0 00-1.176-.216c-.48 0-.928.128-1.344.384-.4.24-.72.576-.96 1.008-.24.432-.36.928-.36 1.488 0 .56.128 1.064.384 1.512.256.448.592.8 1.008 1.056.432.256.896.384 1.392.384zm13.638 2.736c-.976 0-1.848-.224-2.616-.672-.768-.464-1.376-1.128-1.824-1.992-.432-.864-.648-1.888-.648-3.072 0-1.184.24-2.192.72-3.024a4.776 4.776 0 011.968-1.896c.832-.432 1.776-.648 2.832-.648a5.89 5.89 0 011.92.312 3.785 3.785 0 011.56.96v1.056-10.248h3.336V376h-3.36v-2.04l.264.72a8.817 8.817 0 01-1.824 1.152c-.672.304-1.448.456-2.328.456zm1.104-2.832c.448 0 .84-.056 1.176-.168.352-.128.656-.304.912-.528.272-.24.504-.536.696-.888v-2.568a2.137 2.137 0 00-.6-.888 2.41 2.41 0 00-.96-.576 3.333 3.333 0 00-1.224-.216c-.496 0-.96.128-1.392.384-.416.24-.752.576-1.008 1.008-.256.432-.384.928-.384 1.488 0 .56.128 1.064.384 1.512.256.448.592.8 1.008 1.056.432.256.896.384 1.392.384zm8.785-2.832c0-1.072.248-2.032.744-2.88a5.348 5.348 0 012.136-1.992c.912-.496 1.96-.744 3.144-.744 1.2 0 2.24.248 3.12.744a4.935 4.935 0 012.016 1.992c.48.848.72 1.808.72 2.88 0 1.072-.24 2.04-.72 2.904-.464.848-1.136 1.52-2.016 2.016-.88.496-1.936.744-3.168.744-1.152 0-2.184-.224-3.096-.672a5.058 5.058 0 01-2.112-1.944c-.512-.848-.768-1.864-.768-3.048zm3.384.024c0 .544.112 1.04.336 1.488.224.432.528.776.912 1.032s.816.384 1.296.384c.528 0 .984-.128 1.368-.384.384-.256.68-.6.888-1.032a3.49 3.49 0 00.312-1.488c0-.56-.104-1.056-.312-1.488a2.536 2.536 0 00-.888-1.032c-.384-.256-.84-.384-1.368-.384-.48 0-.912.128-1.296.384s-.688.6-.912 1.032c-.224.432-.336.928-.336 1.488zm14.191-5.136l.264 1.872-.048-.168a4.232 4.232 0 011.56-1.584c.672-.416 1.496-.624 2.472-.624.992 0 1.816.296 2.472.888.672.576 1.016 1.328 1.032 2.256V376h-3.36v-6.6c-.016-.464-.144-.832-.384-1.104-.224-.288-.608-.432-1.152-.432-.512 0-.96.168-1.344.504-.384.336-.68.792-.888 1.368-.208.576-.312 1.24-.312 1.992V376h-3.36v-10.488h3.048zm11.202 0h3.36V376h-3.36v-10.488zm-.072-3.72c0-.496.192-.904.576-1.224.4-.32.824-.48 1.272-.48.448 0 .856.16 1.224.48.384.32.576.728.576 1.224s-.192.904-.576 1.224a1.876 1.876 0 01-1.224.456c-.448 0-.872-.152-1.272-.456a1.523 1.523 0 01-.576-1.224zm11.308 14.496c-.976 0-1.864-.192-2.664-.576-.784-.4-1.408-1.008-1.872-1.824-.464-.816-.696-1.856-.696-3.12 0-1.184.24-2.208.72-3.072.48-.864 1.112-1.528 1.896-1.992a4.702 4.702 0 012.496-.72c1.04 0 1.824.176 2.352.528.544.336.992.712 1.344 1.128l-.144.408.312-1.536h3.12V376h-3.36v-2.28l.264.72c-.032 0-.128.096-.288.288-.16.176-.4.392-.72.648-.304.24-.688.448-1.152.624-.448.192-.984.288-1.608.288zm.96-2.736c.4 0 .76-.056 1.08-.168.32-.128.6-.304.84-.528.24-.24.448-.536.624-.888V369.4a2.25 2.25 0 00-.576-.888 2.462 2.462 0 00-.912-.576 3.08 3.08 0 00-1.176-.216c-.48 0-.928.128-1.344.384-.4.24-.72.576-.96 1.008-.24.432-.36.928-.36 1.488 0 .56.128 1.064.384 1.512.256.448.592.8 1.008 1.056.432.256.896.384 1.392.384z" fill="#fff"/><circle cx="404" cy="386" r="10" fill="#fff"/><path d="M396.28 409.336h12.048v3.36h-8.568v3.768h7.584v3.36h-7.584v3.816h8.904V427H396.28v-17.664zm18.84 17.88a6.406 6.406 0 01-2.424-.456 5.323 5.323 0 01-1.872-1.272l1.392-1.848c.512.464.984.8 1.416 1.008.448.192.848.288 1.2.288.272 0 .512-.024.72-.072.224-.064.4-.152.528-.264a.651.651 0 00.192-.48.756.756 0 00-.336-.648 2.42 2.42 0 00-.816-.384 29.88 29.88 0 00-1.08-.336c-.96-.304-1.656-.744-2.088-1.32a3.274 3.274 0 01-.624-1.92c0-.528.136-1.056.408-1.584.288-.544.736-.992 1.344-1.344.624-.368 1.424-.552 2.4-.552.88 0 1.624.088 2.232.264a5.475 5.475 0 011.728.864l-1.272 1.968a4.362 4.362 0 00-1.032-.6c-.368-.176-.712-.272-1.032-.288a1.79 1.79 0 00-.744.096c-.192.08-.344.184-.456.312a.611.611 0 00-.168.408.79.79 0 00.336.72c.256.176.576.312.96.408.384.096.76.208 1.128.336.512.16.952.376 1.32.648.368.272.648.6.84.984.208.368.312.816.312 1.344 0 .64-.168 1.248-.504 1.824-.32.56-.816 1.016-1.488 1.368-.656.352-1.496.528-2.52.528zm13.903.072c-.624 0-1.24-.112-1.848-.336a4.086 4.086 0 01-1.488-1.008l.096-.984v7.08h-3.336v-15.768h2.88l.48 2.04-.264-.72a7.656 7.656 0 011.824-1.152c.672-.304 1.448-.456 2.328-.456.976 0 1.848.232 2.616.696.768.448 1.368 1.104 1.8 1.968.448.848.672 1.872.672 3.072 0 1.184-.248 2.192-.744 3.024a4.859 4.859 0 01-2.04 1.896c-.864.432-1.856.648-2.976.648zm-.672-2.64a3.1 3.1 0 001.488-.36c.464-.24.832-.576 1.104-1.008.288-.448.432-.952.432-1.512 0-.592-.128-1.104-.384-1.536a2.507 2.507 0 00-1.008-1.032 2.603 2.603 0 00-1.392-.384c-.448 0-.848.064-1.2.192-.336.112-.64.288-.912.528-.256.224-.48.512-.672.864v2.568c.128.336.312.632.552.888.24.256.528.456.864.6.352.128.728.192 1.128.192zm14.232 2.64c-1.28 0-2.368-.24-3.264-.72a4.935 4.935 0 01-2.016-1.992c-.464-.848-.696-1.824-.696-2.928 0-1.056.272-2.008.816-2.856a5.889 5.889 0 012.184-2.016c.912-.512 1.928-.768 3.048-.768 1.504 0 2.736.44 3.696 1.32.976.864 1.608 2.12 1.896 3.768l-8.16 2.592-.744-1.824 5.904-1.992-.696.312a2.38 2.38 0 00-.696-1.08c-.32-.32-.808-.48-1.464-.48-.496 0-.936.12-1.32.36a2.266 2.266 0 00-.864.984c-.192.416-.288.912-.288 1.488 0 .656.12 1.208.36 1.656.24.432.568.76.984.984.416.224.88.336 1.392.336.368 0 .72-.064 1.056-.192a5.586 5.586 0 001.032-.504l1.488 2.496c-.56.32-1.168.576-1.824.768a6.351 6.351 0 01-1.824.288zm11.13-10.776l.312 2.88-.072-.432a4.654 4.654 0 011.248-1.584 7.095 7.095 0 011.56-1.032c.528-.24.928-.36 1.2-.36l-.168 3.36c-.784-.096-1.456.032-2.016.384a3.61 3.61 0 00-1.296 1.392 3.761 3.761 0 00-.456 1.776V427h-3.336v-10.488h3.024zm10.884 10.776c-.976 0-1.864-.192-2.664-.576-.784-.4-1.408-1.008-1.872-1.824-.464-.816-.696-1.856-.696-3.12 0-1.184.24-2.208.72-3.072.48-.864 1.112-1.528 1.896-1.992a4.702 4.702 0 012.496-.72c1.04 0 1.824.176 2.352.528.544.336.992.712 1.344 1.128l-.144.408.312-1.536h3.12V427h-3.36v-2.28l.264.72c-.032 0-.128.096-.288.288-.16.176-.4.392-.72.648-.304.24-.688.448-1.152.624-.448.192-.984.288-1.608.288zm.96-2.736c.4 0 .76-.056 1.08-.168.32-.128.6-.304.84-.528.24-.24.448-.536.624-.888V420.4a2.25 2.25 0 00-.576-.888 2.462 2.462 0 00-.912-.576 3.08 3.08 0 00-1.176-.216c-.48 0-.928.128-1.344.384-.4.24-.72.576-.96 1.008-.24.432-.36.928-.36 1.488 0 .56.128 1.064.384 1.512.256.448.592.8 1.008 1.056.432.256.896.384 1.392.384zm12.414-8.04l.264 1.872-.048-.168a4.232 4.232 0 011.56-1.584c.672-.416 1.496-.624 2.472-.624.992 0 1.816.296 2.472.888.672.576 1.016 1.328 1.032 2.256V427h-3.36v-6.6c-.016-.464-.144-.832-.384-1.104-.224-.288-.608-.432-1.152-.432-.512 0-.96.168-1.344.504-.384.336-.68.792-.888 1.368-.208.576-.312 1.24-.312 1.992V427h-3.36v-10.488h3.048zm20.106 9.552c-.464.368-1.048.664-1.752.888a6.562 6.562 0 01-2.04.336c-1.2 0-2.248-.216-3.144-.648a5.032 5.032 0 01-2.064-1.896c-.48-.832-.72-1.832-.72-3s.264-2.16.792-2.976a5.219 5.219 0 012.064-1.896 5.989 5.989 0 012.712-.648c.944 0 1.76.128 2.448.384.704.256 1.304.592 1.8 1.008l-1.632 2.16c-.224-.176-.536-.352-.936-.528-.384-.192-.84-.288-1.368-.288-.464 0-.888.12-1.272.36s-.688.568-.912.984c-.224.416-.336.896-.336 1.44 0 .512.12.984.36 1.416.24.432.568.776.984 1.032.432.24.936.36 1.512.36.368 0 .704-.048 1.008-.144.32-.112.592-.264.816-.456l1.68 2.112zm7.741 1.224c-1.28 0-2.368-.24-3.264-.72a4.935 4.935 0 01-2.016-1.992c-.464-.848-.696-1.824-.696-2.928 0-1.056.272-2.008.816-2.856a5.889 5.889 0 012.184-2.016c.912-.512 1.928-.768 3.048-.768 1.504 0 2.736.44 3.696 1.32.976.864 1.608 2.12 1.896 3.768l-8.16 2.592-.744-1.824 5.904-1.992-.696.312a2.38 2.38 0 00-.696-1.08c-.32-.32-.808-.48-1.464-.48-.496 0-.936.12-1.32.36a2.266 2.266 0 00-.864.984c-.192.416-.288.912-.288 1.488 0 .656.12 1.208.36 1.656.24.432.568.76.984.984.416.224.88.336 1.392.336.368 0 .72-.064 1.056-.192a5.586 5.586 0 001.032-.504l1.488 2.496c-.56.32-1.168.576-1.824.768a6.351 6.351 0 01-1.824.288z" fill="#fff"/><circle cx="320" cy="427" r="10" fill="#fff"/><path d="M255.288 463l7.968-18.36h.192l7.968 18.36h-4.032l-5.088-12.912 2.52-1.728L258.72 463h-3.432zm5.448-6.384h5.304l1.224 2.928h-7.608l1.08-2.928zm12.703-12.552h3.36V463h-3.36v-18.936zm13.708 19.224c-.88 0-1.624-.144-2.232-.432a5.641 5.641 0 01-1.56-1.176l.264-.72V463h-3.36v-18.936h3.336v10.248-1.08c.416-.352.968-.648 1.656-.888s1.472-.36 2.352-.36c.912 0 1.744.216 2.496.648.752.432 1.352 1.064 1.8 1.896.464.816.696 1.816.696 3s-.256 2.208-.768 3.072a5.18 5.18 0 01-1.992 1.992 5.43 5.43 0 01-2.688.696zm-.744-2.832a2.56 2.56 0 001.368-.384 2.843 2.843 0 001.032-1.056c.256-.448.384-.952.384-1.512s-.128-1.056-.384-1.488a2.713 2.713 0 00-1.032-1.008 2.56 2.56 0 00-1.368-.384c-.432 0-.84.072-1.224.216-.368.128-.688.32-.96.576a2.49 2.49 0 00-.6.888v2.568c.192.352.416.648.672.888.272.224.584.4.936.528.352.112.744.168 1.176.168zm13.249 2.832c-.976 0-1.864-.192-2.664-.576-.784-.4-1.408-1.008-1.872-1.824-.464-.816-.696-1.856-.696-3.12 0-1.184.24-2.208.72-3.072.48-.864 1.112-1.528 1.896-1.992a4.702 4.702 0 012.496-.72c1.04 0 1.824.176 2.352.528.544.336.992.712 1.344 1.128l-.144.408.312-1.536h3.12V463h-3.36v-2.28l.264.72c-.032 0-.128.096-.288.288-.16.176-.4.392-.72.648-.304.24-.688.448-1.152.624-.448.192-.984.288-1.608.288zm.96-2.736c.4 0 .76-.056 1.08-.168.32-.128.6-.304.84-.528.24-.24.448-.536.624-.888V456.4a2.25 2.25 0 00-.576-.888 2.462 2.462 0 00-.912-.576 3.08 3.08 0 00-1.176-.216c-.48 0-.928.128-1.344.384-.4.24-.72.576-.96 1.008-.24.432-.36.928-.36 1.488 0 .56.128 1.064.384 1.512.256.448.592.8 1.008 1.056.432.256.896.384 1.392.384zm12.414-8.04l.264 1.872-.048-.168a4.232 4.232 0 011.56-1.584c.672-.416 1.496-.624 2.472-.624.992 0 1.816.296 2.472.888.672.576 1.016 1.328 1.032 2.256V463h-3.36v-6.6c-.016-.464-.144-.832-.384-1.104-.224-.288-.608-.432-1.152-.432-.512 0-.96.168-1.344.504-.384.336-.68.792-.888 1.368-.208.576-.312 1.24-.312 1.992V463h-3.36v-10.488h3.048zm11.202 0h3.36V463h-3.36v-10.488zm-.072-3.72c0-.496.192-.904.576-1.224.4-.32.824-.48 1.272-.48.448 0 .856.16 1.224.48.384.32.576.728.576 1.224s-.192.904-.576 1.224a1.876 1.876 0 01-1.224.456c-.448 0-.872-.152-1.272-.456a1.523 1.523 0 01-.576-1.224zm188.372-143.256c-.192.16-.552.376-1.08.648-.512.272-1.144.512-1.896.72-.752.208-1.584.304-2.496.288-1.392-.032-2.64-.28-3.744-.744a8.463 8.463 0 01-2.784-1.944 8.594 8.594 0 01-1.728-2.808 9.473 9.473 0 01-.6-3.384c0-1.344.2-2.576.6-3.696.416-1.12 1-2.088 1.752-2.904a8.004 8.004 0 012.736-1.896c1.056-.448 2.224-.672 3.504-.672 1.184 0 2.232.16 3.144.48.912.32 1.656.664 2.232 1.032l-1.368 3.288c-.4-.304-.936-.616-1.608-.936-.656-.336-1.416-.504-2.28-.504-.672 0-1.32.144-1.944.432a5.054 5.054 0 00-1.632 1.176 5.859 5.859 0 00-1.104 1.8 5.831 5.831 0 00-.408 2.208c0 .848.12 1.624.36 2.328a5.46 5.46 0 001.08 1.824c.464.496 1.016.88 1.656 1.152.656.272 1.392.408 2.208.408.944 0 1.752-.152 2.424-.456.672-.304 1.184-.624 1.536-.96l1.44 3.12zm2.118-3.912c0-1.072.248-2.032.744-2.88a5.348 5.348 0 012.136-1.992c.912-.496 1.96-.744 3.144-.744 1.2 0 2.24.248 3.12.744a4.935 4.935 0 012.016 1.992c.48.848.72 1.808.72 2.88 0 1.072-.24 2.04-.72 2.904-.464.848-1.136 1.52-2.016 2.016-.88.496-1.936.744-3.168.744-1.152 0-2.184-.224-3.096-.672a5.058 5.058 0 01-2.112-1.944c-.512-.848-.768-1.864-.768-3.048zm3.384.024c0 .544.112 1.04.336 1.488.224.432.528.776.912 1.032s.816.384 1.296.384c.528 0 .984-.128 1.368-.384.384-.256.68-.6.888-1.032a3.49 3.49 0 00.312-1.488c0-.56-.104-1.056-.312-1.488a2.536 2.536 0 00-.888-1.032c-.384-.256-.84-.384-1.368-.384-.48 0-.912.128-1.296.384s-.688.6-.912 1.032c-.224.432-.336.928-.336 1.488zm20.047 4.416c-.464.368-1.048.664-1.752.888a6.562 6.562 0 01-2.04.336c-1.2 0-2.248-.216-3.144-.648a5.032 5.032 0 01-2.064-1.896c-.48-.832-.72-1.832-.72-3s.264-2.16.792-2.976a5.219 5.219 0 012.064-1.896 5.989 5.989 0 012.712-.648c.944 0 1.76.128 2.448.384.704.256 1.304.592 1.8 1.008l-1.632 2.16c-.224-.176-.536-.352-.936-.528-.384-.192-.84-.288-1.368-.288-.464 0-.888.12-1.272.36s-.688.568-.912.984c-.224.416-.336.896-.336 1.44 0 .512.12.984.36 1.416.24.432.568.776.984 1.032.432.24.936.36 1.512.36.368 0 .704-.048 1.008-.144.32-.112.592-.264.816-.456l1.68 2.112zm2.581.936v-18.936h3.36V307h-3.36zm6.024-7.128l4.752 7.128h-3.912l-3.048-5.208 2.208-1.92zm-3.672 4.224l-.336-3.192 6.336-4.656 2.04 1.8-8.04 6.048zm10.749-16.032h3.36V307h-3.36v-18.936zm11.981 19.224c-1.28 0-2.368-.24-3.264-.72a4.935 4.935 0 01-2.016-1.992c-.464-.848-.696-1.824-.696-2.928 0-1.056.272-2.008.816-2.856a5.889 5.889 0 012.184-2.016c.912-.512 1.928-.768 3.048-.768 1.504 0 2.736.44 3.696 1.32.976.864 1.608 2.12 1.896 3.768l-8.16 2.592-.744-1.824 5.904-1.992-.696.312a2.38 2.38 0 00-.696-1.08c-.32-.32-.808-.48-1.464-.48-.496 0-.936.12-1.32.36a2.266 2.266 0 00-.864.984c-.192.416-.288.912-.288 1.488 0 .656.12 1.208.36 1.656.24.432.568.76.984.984.416.224.88.336 1.392.336.368 0 .72-.064 1.056-.192a5.586 5.586 0 001.032-.504l1.488 2.496c-.56.32-1.168.576-1.824.768a6.351 6.351 0 01-1.824.288zm14.993 0c-.88 0-1.624-.144-2.232-.432a5.641 5.641 0 01-1.56-1.176l.264-.72V307h-3.36v-18.936h3.336v10.248-1.08c.416-.352.968-.648 1.656-.888s1.472-.36 2.352-.36c.912 0 1.744.216 2.496.648.752.432 1.352 1.064 1.8 1.896.464.816.696 1.816.696 3s-.256 2.208-.768 3.072a5.18 5.18 0 01-1.992 1.992 5.43 5.43 0 01-2.688.696zm-.744-2.832a2.56 2.56 0 001.368-.384 2.843 2.843 0 001.032-1.056c.256-.448.384-.952.384-1.512s-.128-1.056-.384-1.488a2.713 2.713 0 00-1.032-1.008 2.56 2.56 0 00-1.368-.384c-.432 0-.84.072-1.224.216-.368.128-.688.32-.96.576a2.49 2.49 0 00-.6.888v2.568c.192.352.416.648.672.888.272.224.584.4.936.528.352.112.744.168 1.176.168zm8.833-7.944h3.36V307h-3.36v-10.488zm-.072-3.72c0-.496.192-.904.576-1.224.4-.32.824-.48 1.272-.48.448 0 .856.16 1.224.48.384.32.576.728.576 1.224s-.192.904-.576 1.224a1.876 1.876 0 01-1.224.456c-.448 0-.872-.152-1.272-.456a1.523 1.523 0 01-.576-1.224zm11.164 14.496c-.976 0-1.848-.224-2.616-.672-.768-.464-1.376-1.128-1.824-1.992-.432-.864-.648-1.888-.648-3.072 0-1.184.24-2.192.72-3.024a4.776 4.776 0 011.968-1.896c.832-.432 1.776-.648 2.832-.648a5.89 5.89 0 011.92.312 3.785 3.785 0 011.56.96v1.056-10.248h3.336V307h-3.36v-2.04l.264.72a8.817 8.817 0 01-1.824 1.152c-.672.304-1.448.456-2.328.456zm1.104-2.832c.448 0 .84-.056 1.176-.168.352-.128.656-.304.912-.528.272-.24.504-.536.696-.888v-2.568a2.137 2.137 0 00-.6-.888 2.41 2.41 0 00-.96-.576 3.333 3.333 0 00-1.224-.216c-.496 0-.96.128-1.392.384-.416.24-.752.576-1.008 1.008-.256.432-.384.928-.384 1.488 0 .56.128 1.064.384 1.512.256.448.592.8 1.008 1.056.432.256.896.384 1.392.384zm13.873 2.832c-.976 0-1.848-.224-2.616-.672-.768-.464-1.376-1.128-1.824-1.992-.432-.864-.648-1.888-.648-3.072 0-1.184.24-2.192.72-3.024a4.776 4.776 0 011.968-1.896c.832-.432 1.776-.648 2.832-.648a5.89 5.89 0 011.92.312 3.785 3.785 0 011.56.96v1.056-10.248h3.336V307h-3.36v-2.04l.264.72a8.817 8.817 0 01-1.824 1.152c-.672.304-1.448.456-2.328.456zm1.104-2.832c.448 0 .84-.056 1.176-.168.352-.128.656-.304.912-.528.272-.24.504-.536.696-.888v-2.568a2.137 2.137 0 00-.6-.888 2.41 2.41 0 00-.96-.576 3.333 3.333 0 00-1.224-.216c-.496 0-.96.128-1.392.384-.416.24-.752.576-1.008 1.008-.256.432-.384.928-.384 1.488 0 .56.128 1.064.384 1.512.256.448.592.8 1.008 1.056.432.256.896.384 1.392.384zm10.44 7.584l6.984-15.528h3.024l-6.768 15.528h-3.24zm2.808-4.992l-5.136-10.536h3.768l3.96 8.856-2.592 1.68z" fill="#fff"/><circle cx="567" cy="331" r="10" fill="#fff"/><path opacity=".5" d="M617.42 131l11.62-26.775h.28L640.94 131h-5.88l-7.42-18.83 3.675-2.52-8.89 21.35h-5.005zm7.945-9.31h7.735l1.785 4.27H623.79l1.575-4.27zm44.026-.21c0 .817.245 1.598.735 2.345a5.75 5.75 0 001.925 1.82c.816.467 1.703.7 2.66.7 1.05 0 1.983-.233 2.8-.7.816-.467 1.458-1.073 1.925-1.82.49-.747.735-1.528.735-2.345v-16.24h5.005v16.345c0 1.89-.467 3.57-1.4 5.04-.934 1.447-2.194 2.59-3.78 3.43-1.587.817-3.349 1.225-5.285 1.225-1.914 0-3.664-.408-5.25-1.225-1.564-.84-2.812-1.983-3.745-3.43-.934-1.47-1.4-3.15-1.4-5.04V105.24h5.075v16.24zm56.66-10.01c-.98-.537-1.984-.98-3.01-1.33-1.004-.35-1.949-.525-2.835-.525-1.097 0-1.96.222-2.59.665-.63.443-.945 1.108-.945 1.995 0 .607.233 1.155.7 1.645.49.467 1.108.887 1.855 1.26.77.373 1.563.712 2.38 1.015.746.28 1.481.618 2.205 1.015a7.644 7.644 0 011.995 1.435c.583.56 1.05 1.272 1.4 2.135.35.84.525 1.878.525 3.115 0 1.307-.339 2.52-1.015 3.64-.677 1.12-1.669 2.03-2.975 2.73-1.307.677-2.917 1.015-4.83 1.015-.98 0-1.984-.093-3.01-.28a17.394 17.394 0 01-2.975-.91c-.98-.42-1.925-.945-2.835-1.575l2.24-3.955c.606.443 1.26.84 1.96 1.19.723.327 1.446.583 2.17.77.723.187 1.388.28 1.995.28.606 0 1.213-.082 1.82-.245.63-.187 1.143-.49 1.54-.91.42-.42.63-1.003.63-1.75 0-.513-.175-.98-.525-1.4-.327-.42-.782-.805-1.365-1.155-.56-.35-1.179-.653-1.855-.91a34.681 34.681 0 01-2.45-1.05 13.72 13.72 0 01-2.38-1.435 7.183 7.183 0 01-1.785-2.135c-.444-.863-.665-1.913-.665-3.15 0-1.493.326-2.788.98-3.885.676-1.097 1.621-1.96 2.835-2.59 1.213-.653 2.613-1.015 4.2-1.085 2.076 0 3.756.245 5.04.735 1.306.49 2.473 1.073 3.5 1.75l-1.925 3.885zm25.9-6.23h17.36v4.9h-6.265V131h-5.075v-20.86h-6.02v-4.9zm51.063 0c1.61 0 3.045.21 4.305.63 1.26.397 2.31.98 3.15 1.75a7.196 7.196 0 011.96 2.73c.443 1.05.665 2.24.665 3.57 0 1.05-.164 2.1-.49 3.15a7.813 7.813 0 01-1.54 2.87c-.7.863-1.634 1.563-2.8 2.1-1.167.513-2.614.77-4.34.77h-3.64V131h-5.075v-25.76h7.805zm.875 12.67c.77 0 1.411-.128 1.925-.385.513-.257.91-.583 1.19-.98.303-.397.513-.805.63-1.225.14-.443.21-.852.21-1.225 0-.28-.047-.63-.14-1.05a3.865 3.865 0 00-.49-1.33c-.257-.443-.654-.817-1.19-1.12-.514-.303-1.214-.455-2.1-.455h-3.64v7.77h3.605zm4.76 3.15l6.37 9.94h-5.915l-6.51-9.8 6.055-.14zm28.649 9.94l11.62-26.775h.28L860.818 131h-5.88l-7.42-18.83 3.675-2.52-8.89 21.35h-5.005zm7.945-9.31h7.735l1.785 4.27h-11.095l1.575-4.27zm40.33-16.45h5.075v20.86h12.11v4.9h-17.185v-25.76zm43.422 0h5.075V131h-5.075v-25.76zM958.814 131l11.62-26.775h.28L982.334 131h-5.88l-7.42-18.83 3.675-2.52-8.89 21.35h-5.005zm7.945-9.31h7.735l1.785 4.27h-11.095l1.575-4.27z" fill="#fff"/></g><defs><clipPath id="clip0_50_1457"><path fill="#fff" d="M0 0h1440v834H0z"/></clipPath></defs></svg>